<svg width="50" height="50" viewBox="0 0 50 50" fill="none" xmlns="http://www.w3.org/2000/svg">
<circle cx="25" cy="25" r="25" fill="url(#paint0_linear_270_869)" fill-opacity="0.55"/>
<circle cx="25" cy="25" r="24.5" stroke="url(#paint1_linear_270_869)" stroke-opacity="0.5"/>
<path d="M32.9371 25.5123C33.0045 25.4454 33.058 25.3657 33.0945 25.278C33.1312 25.1901 33.15 25.0959 33.15 25.0007C33.15 24.9055 33.1311 24.8112 33.0945 24.7233C33.0586 24.6371 33.0064 24.5588 32.9406 24.4925L26.443 17.0702L26.4432 17.07L26.4367 17.0633C26.3696 16.9957 26.2898 16.9421 26.202 16.9055C26.1141 16.8689 26.0198 16.85 25.9246 16.85C25.8294 16.85 25.7351 16.8689 25.6472 16.9055C25.5609 16.9414 25.4823 16.9939 25.416 17.0598L17.0683 24.483L17.0681 24.4828L17.0619 24.489C16.9262 24.6247 16.85 24.8088 16.85 25.0007C16.85 25.1926 16.9262 25.3766 17.0619 25.5123C17.1976 25.648 17.3817 25.7242 17.5736 25.7242C17.7638 25.7242 17.9464 25.6493 18.0817 25.5157L25.9105 18.5927L31.9066 25.5045L31.9063 25.5048L31.9134 25.5119C31.9804 25.5795 32.0602 25.6331 32.1481 25.6698C32.236 25.7064 32.3303 25.7252 32.4255 25.7252C32.5207 25.7252 32.6149 25.7064 32.7028 25.6698C32.7905 25.6332 32.8701 25.5797 32.9371 25.5123ZM32.9371 25.5123C32.9372 25.5122 32.9374 25.512 32.9375 25.5119L32.831 25.4062L32.9367 25.5127C32.9368 25.5126 32.937 25.5125 32.9371 25.5123ZM17.9743 30.3711L17.9718 30.3865L17.9726 30.4021C18.0101 31.1932 18.3582 31.9375 18.9413 32.4734C19.5238 33.0087 20.2937 33.2927 21.0841 33.2641H27.7277C28.5181 33.2927 29.288 33.0087 29.8705 32.4734C30.4515 31.9395 30.7993 31.1986 30.8388 30.4107L31.4311 26.7383L31.433 26.7264V26.7144C31.433 26.5231 31.357 26.3397 31.2218 26.2044C31.0865 26.0691 30.9031 25.9931 30.7118 25.9931C30.5205 25.9931 30.3371 26.0691 30.2018 26.2044C30.0695 26.3367 29.994 26.515 29.9907 26.7017L29.3989 30.3711L29.3984 30.371L29.3974 30.3833C29.3654 30.7927 29.1736 31.1731 28.8634 31.4423C28.5533 31.7114 28.1497 31.8478 27.7399 31.8219L27.7399 31.8216H27.7305H21.0814V31.8213L21.0719 31.8219C20.6621 31.8478 20.2585 31.7114 19.9484 31.4423C19.6427 31.1769 19.4519 30.8035 19.4159 30.4008L20.0066 26.7383L20.0085 26.7264V26.7144C20.0085 26.5231 19.9325 26.3397 19.7972 26.2044C19.662 26.0691 19.4785 25.9931 19.2872 25.9931C19.096 25.9931 18.9125 26.0691 18.7773 26.2044C18.645 26.3367 18.5694 26.515 18.5661 26.7017L17.9743 30.3711Z" fill="#FCF4DE" stroke="#FCF4DE" stroke-width="0.3"/>
<defs>
<linearGradient id="paint0_linear_270_869" x1="0" y1="25" x2="50" y2="25" gradientUnits="userSpaceOnUse">
<stop stop-color="#9ED5FE"/>
<stop offset="0.52" stop-color="white"/>
<stop offset="1" stop-color="#9DD5FE"/>
</linearGradient>
<linearGradient id="paint1_linear_270_869" x1="0" y1="25" x2="50" y2="25" gradientUnits="userSpaceOnUse">
<stop stop-color="#9DD5FE"/>
<stop offset="0.51" stop-color="#9DD5FE" stop-opacity="0.5"/>
<stop offset="1" stop-color="#9DD5FE"/>
</linearGradient>
</defs>
</svg>
