<svg width="16" height="18" viewBox="0 0 16 18" fill="none" xmlns="http://www.w3.org/2000/svg">
<path d="M14.7413 7.18694L4.86905 0.277084C3.58124 -0.458123 2.26828 0.345935 2.26828 1.7918L0 16.2166C0 17.4415 0.797472 18.0001 1.53867 18.0001C1.88771 18.0001 2.24334 17.8899 2.59657 17.675L14.7916 10.2104C15.4046 9.83381 15.7489 9.27641 15.7381 8.68071C15.7279 8.0844 15.3651 7.53958 14.7413 7.18694ZM13.9743 8.87708L1.77994 16.3399C1.69792 16.3902 1.63326 16.4153 1.58896 16.4279C1.57698 16.3836 1.56501 16.3154 1.56501 16.2166L3.83329 1.7924C3.83329 1.64392 3.86023 1.56908 3.86023 1.55052C3.90813 1.55352 3.99195 1.57807 4.09732 1.63794L13.9677 8.54779C14.1174 8.63341 14.1617 8.70765 14.1761 8.69148C14.1683 8.71184 14.1174 8.78787 13.9743 8.87708Z" fill="#FCF4DE"/>
</svg>
