<svg width="137" height="94" viewBox="0 0 137 94" fill="none" xmlns="http://www.w3.org/2000/svg">
<path d="M1.40802 10.56C1.57802 10.613 1.78102 10.709 2.01602 10.848C2.26102 10.987 2.533 11.131 2.832 11.28C3.13 11.429 3.45601 11.563 3.80801 11.68C4.17001 11.797 4.55402 11.856 4.96002 11.856H5.13602C5.20002 11.856 5.27402 11.845 5.36002 11.824L5.53601 11.952C5.95201 11.824 6.293 11.584 6.56 11.232C6.826 10.869 6.96002 10.384 6.96002 9.776C6.96002 9.339 6.85301 9.03997 6.64001 8.87997C6.43701 8.70897 6.058 8.62399 5.504 8.62399C5.162 8.62399 4.80501 8.65098 4.43201 8.70398C4.06901 8.74698 3.685 8.76797 3.28 8.76797C3.098 8.76797 2.912 8.76298 2.72 8.75198C2.528 8.73098 2.33002 8.69298 2.12802 8.63998V8.73599C2.55402 8.84299 2.976 8.896 3.392 8.896C3.797 8.896 4.18101 8.875 4.54401 8.832C4.91701 8.779 5.274 8.75198 5.616 8.75198C5.904 8.75198 6.12799 8.78399 6.28799 8.84799C6.45799 8.90099 6.586 8.97599 6.672 9.07199C6.757 9.16799 6.81 9.28498 6.832 9.42398C6.864 9.55198 6.88 9.69599 6.88 9.85599C6.88 10.357 6.74601 10.784 6.48001 11.136C6.22401 11.467 5.91999 11.675 5.56799 11.76C5.96199 11.621 6.272 11.381 6.496 11.04C6.73 10.677 6.84802 10.272 6.84802 9.82397C6.84802 9.50397 6.76201 9.25898 6.59201 9.08798C6.43201 8.91698 6.14902 8.832 5.74402 8.832C5.41302 8.832 5.03999 8.853 4.62399 8.896C4.20799 8.939 3.76502 8.95999 3.29602 8.95999C3.00802 8.95999 2.67199 8.92299 2.28799 8.84799C1.91399 8.77299 1.557 8.63498 1.216 8.43198C0.874003 8.22898 0.58602 7.95198 0.35202 7.59998C0.11702 7.23698 0 6.76799 0 6.19199C0 5.73299 0.0900032 5.31198 0.272003 4.92798C0.464003 4.53298 0.714017 4.19199 1.02402 3.90399C1.33302 3.60499 1.68502 3.37098 2.08002 3.19998C2.48502 3.02898 2.901 2.93898 3.328 2.92798C3.733 2.92798 4.11701 2.98697 4.48001 3.10397C4.85301 3.21097 5.20501 3.35498 5.53601 3.53598C5.86601 3.70698 6.18101 3.899 6.48001 4.112C6.77801 4.325 7.05601 4.53898 7.31201 4.75198L6.992 5.07199C6.917 5.07199 6.80501 5.029 6.65601 4.944C6.50601 4.848 6.27702 4.68799 5.96802 4.46399L5.87201 4.60797C6.25601 4.91697 6.53301 5.20498 6.70401 5.47198C6.88501 5.73899 6.97601 5.94698 6.97601 6.09598C6.95401 6.18098 6.90101 6.224 6.81601 6.224C6.73001 6.224 6.56002 6.15499 6.30402 6.01599C6.04802 5.87699 5.75401 5.72297 5.42401 5.55197C5.10401 5.38097 4.76199 5.22698 4.39999 5.08798C4.03699 4.94898 3.70602 4.87997 3.40802 4.87997C3.23702 4.87997 3.066 4.91198 2.896 4.97598C2.725 5.03998 2.57001 5.13099 2.43201 5.24799C2.29301 5.35499 2.17602 5.48798 2.08002 5.64798C1.99402 5.80798 1.952 5.98399 1.952 6.17599C1.952 6.48499 2.096 6.69299 2.384 6.79999C2.672 6.90699 3.05002 6.95999 3.52002 6.95999C3.61602 6.95999 3.71701 6.95999 3.82401 6.95999C3.94101 6.94899 4.04801 6.93299 4.14401 6.91199C4.38901 6.91199 4.54899 6.907 4.62399 6.896C4.70899 6.875 4.78901 6.86398 4.86401 6.86398C5.32201 6.86398 5.78102 6.89599 6.24002 6.95999C6.69802 7.02399 7.10902 7.16298 7.47202 7.37598C7.83402 7.58898 8.12802 7.89299 8.35202 8.28799C8.57602 8.68299 8.68802 9.21098 8.68802 9.87198C8.68802 10.331 8.608 10.789 8.448 11.248C8.298 11.696 8.06901 12.101 7.76001 12.464C7.45001 12.816 7.066 13.099 6.608 13.312C6.149 13.536 5.61 13.648 4.992 13.648C4.618 13.648 4.176 13.573 3.664 13.424C3.162 13.285 2.682 13.12 2.224 12.928C1.776 12.725 1.39202 12.517 1.07202 12.304C0.762021 12.091 0.608002 11.909 0.608002 11.76C0.608002 11.717 0.634019 11.685 0.688019 11.664C1.33802 12.144 2 12.539 2.672 12.848C3.333 13.136 4.01001 13.296 4.70401 13.328C4.36201 13.307 4.02099 13.248 3.67999 13.152C3.32799 13.045 2.97599 12.917 2.62399 12.768C2.28199 12.608 1.95202 12.432 1.63202 12.24C1.32202 12.037 1.02399 11.835 0.735992 11.632L0.976013 11.424C0.944013 11.413 0.885018 11.376 0.800018 11.312C0.714018 11.248 0.629006 11.168 0.544006 11.072C0.469006 10.976 0.399999 10.875 0.335999 10.768C0.271999 10.661 0.240021 10.56 0.240021 10.464C0.240021 10.357 0.261016 10.288 0.304016 10.256C0.346016 10.224 0.393998 10.208 0.447998 10.208C0.500998 10.208 0.612997 10.245 0.783997 10.32C0.953997 10.395 1.16202 10.475 1.40802 10.56ZM4.944 12.192C4.57 12.192 4.15401 12.117 3.69601 11.968C3.24801 11.808 2.82102 11.605 2.41602 11.36C2.74602 11.584 3.11402 11.787 3.52002 11.968C3.92502 12.139 4.39401 12.224 4.92801 12.224C5.64201 12.224 6.20799 12.005 6.62399 11.568C7.04999 11.131 7.26401 10.544 7.26401 9.80798V9.64798C7.21001 9.30698 7.09302 9.02898 6.91202 8.81598C6.74102 8.59198 6.474 8.469 6.112 8.448C6.336 8.491 6.51701 8.55998 6.65601 8.65598C6.80501 8.75198 6.917 8.869 6.992 9.008C7.077 9.136 7.136 9.27997 7.168 9.43997C7.2 9.59997 7.216 9.76497 7.216 9.93597C7.173 10.64 6.94901 11.195 6.54401 11.6C6.13801 11.995 5.605 12.192 4.944 12.192ZM6.97601 12.816C7.24201 12.645 7.456 12.437 7.616 12.192C7.776 11.947 7.91401 11.691 8.03201 11.424C7.80801 11.872 7.498 12.267 7.104 12.608C6.72 12.949 6.261 13.163 5.728 13.248C5.93 13.216 6.13802 13.173 6.35202 13.12C6.57602 13.056 6.78401 12.955 6.97601 12.816ZM8.496 9.80798C8.496 9.69098 8.47401 9.57899 8.43201 9.47198C8.40001 9.38698 8.37302 9.29598 8.35202 9.19998L8.36801 9.40799C8.37801 9.49299 8.384 9.61098 8.384 9.75998C8.384 10.048 8.35199 10.325 8.28799 10.592C8.22399 10.859 8.144 11.12 8.048 11.376C8.144 11.141 8.23401 10.896 8.32001 10.64C8.41601 10.373 8.474 10.096 8.496 9.80798ZM17.961 12.288C17.492 12.48 17.006 12.629 16.505 12.736C16.014 12.843 15.513 12.896 15.001 12.896C14.532 12.896 14.073 12.843 13.625 12.736C13.177 12.629 12.766 12.459 12.393 12.224C12.02 11.989 11.689 11.685 11.401 11.312C11.124 10.928 10.91 10.469 10.761 9.93597C10.793 10.405 10.921 10.811 11.145 11.152C11.369 11.483 11.646 11.771 11.977 12.016C12.318 12.251 12.692 12.443 13.097 12.592C13.502 12.741 13.892 12.864 14.265 12.96C14.318 12.971 14.393 12.976 14.489 12.976C15.118 12.976 15.689 12.923 16.201 12.816C16.713 12.709 17.236 12.597 17.769 12.48C17.598 12.619 17.39 12.741 17.145 12.848C16.91 12.944 16.649 13.029 16.361 13.104C16.084 13.168 15.79 13.216 15.481 13.248C15.172 13.291 14.862 13.312 14.553 13.312H14.377C14.324 13.312 14.27 13.307 14.217 13.296L14.105 13.088C13.721 13.045 13.321 12.949 12.905 12.8C12.489 12.651 12.105 12.443 11.753 12.176C11.412 11.899 11.124 11.563 10.889 11.168C10.665 10.773 10.553 10.315 10.553 9.79199C10.553 9.35499 10.612 8.92799 10.729 8.51199C10.846 8.09599 11.001 7.69099 11.193 7.29599C11.182 7.30699 11.166 7.31198 11.145 7.31198C11.113 7.31198 11.097 7.29099 11.097 7.24799C10.905 7.63199 10.74 8.032 10.601 8.448C10.473 8.853 10.409 9.296 10.409 9.776C10.409 10.288 10.526 10.741 10.761 11.136C10.996 11.531 11.273 11.867 11.593 12.144C11.924 12.411 12.26 12.629 12.601 12.8C12.91 12.949 13.166 13.056 13.369 13.12C13.038 13.024 12.702 12.885 12.361 12.704C11.998 12.512 11.668 12.272 11.369 11.984C11.081 11.685 10.841 11.344 10.649 10.96C10.457 10.565 10.361 10.133 10.361 9.664C10.361 8.992 10.484 8.363 10.729 7.776C10.974 7.189 11.3 6.68298 11.705 6.25598C12.11 5.81898 12.574 5.47699 13.097 5.23199C13.63 4.97599 14.18 4.84799 14.745 4.84799C14.841 4.82699 14.958 4.81598 15.097 4.81598C15.246 4.80498 15.369 4.79999 15.465 4.79999C15.806 4.87499 16.148 4.96499 16.489 5.07199C16.841 5.17899 17.188 5.32799 17.529 5.51999C17.486 5.54099 17.454 5.573 17.433 5.616C17.422 5.648 17.412 5.69099 17.401 5.74399C17.39 5.78699 17.369 5.82399 17.337 5.85599C17.316 5.88799 17.273 5.90399 17.209 5.90399C17.156 5.90399 17.076 5.88799 16.969 5.85599C16.862 5.82399 16.713 5.77598 16.521 5.71198C16.489 5.74398 16.473 5.79199 16.473 5.85599C16.729 5.98399 16.905 6.13299 17.001 6.30399C17.097 6.46399 17.145 6.61897 17.145 6.76797C17.145 6.84297 17.065 6.90699 16.905 6.95999C16.766 6.95999 16.548 6.93297 16.249 6.87997C15.961 6.82697 15.636 6.79999 15.273 6.79999C15.113 6.79999 14.937 6.811 14.745 6.832C14.553 6.843 14.361 6.87498 14.169 6.92798C13.977 6.97098 13.796 7.03999 13.625 7.13599C13.454 7.22099 13.316 7.33898 13.209 7.48798C13.081 7.65898 12.964 7.851 12.857 8.064C12.75 8.277 12.654 8.496 12.569 8.72C12.484 8.933 12.414 9.14099 12.361 9.34399C12.318 9.54699 12.297 9.728 12.297 9.888C12.297 10.037 12.366 10.208 12.505 10.4C12.644 10.581 12.82 10.757 13.033 10.928C13.257 11.088 13.508 11.227 13.785 11.344C14.073 11.461 14.361 11.52 14.649 11.52C14.788 11.52 14.953 11.499 15.145 11.456C15.348 11.413 15.55 11.365 15.753 11.312C15.966 11.248 16.174 11.195 16.377 11.152C16.58 11.109 16.75 11.088 16.889 11.088C17.017 11.088 17.097 11.104 17.129 11.136C17.172 11.157 17.193 11.205 17.193 11.28C16.948 11.365 16.692 11.451 16.425 11.536C16.254 11.589 16.089 11.643 15.929 11.696L16.425 11.568C16.681 11.493 16.937 11.413 17.193 11.328C17.193 11.381 17.193 11.429 17.193 11.472C17.204 11.515 17.236 11.563 17.289 11.616L17.449 11.552C17.534 11.52 17.625 11.477 17.721 11.424C17.934 11.424 18.078 11.445 18.153 11.488C18.238 11.531 18.281 11.595 18.281 11.68C18.281 11.733 18.27 11.781 18.249 11.824C18.238 11.856 18.217 11.893 18.185 11.936C18.164 11.968 18.132 12.011 18.089 12.064C18.046 12.117 18.004 12.192 17.961 12.288ZM12.153 10.368C12.238 10.56 12.366 10.747 12.537 10.928C12.708 11.099 12.9 11.253 13.113 11.392C13.337 11.52 13.572 11.627 13.817 11.712C14.052 11.797 14.286 11.845 14.521 11.856C14.308 11.835 14.084 11.781 13.849 11.696C13.604 11.611 13.369 11.504 13.145 11.376C12.932 11.237 12.734 11.083 12.553 10.912C12.382 10.741 12.249 10.56 12.153 10.368ZM22.332 13.312C22.225 13.333 22.108 13.344 21.98 13.344H21.516C21.239 13.344 21.041 13.376 20.924 13.44C20.817 13.504 20.753 13.536 20.732 13.536L20.668 13.248V12.96L20.588 11.456C20.567 11.168 20.508 10.859 20.412 10.528C20.316 10.197 20.241 9.86099 20.188 9.51999C20.156 9.29599 20.129 9.08297 20.108 8.87997L20.044 8.25598C20.023 8.04298 19.996 7.82398 19.964 7.59998C19.943 7.37598 19.905 7.13597 19.852 6.87997C19.852 6.81597 19.852 6.75199 19.852 6.68799C19.863 6.62399 19.868 6.55997 19.868 6.49597C19.868 6.16497 19.841 5.83999 19.788 5.51999C19.735 5.19999 19.66 4.88499 19.564 4.57599C19.639 4.54399 19.708 4.51697 19.772 4.49597C19.836 4.46397 19.895 4.448 19.948 4.448C20.001 4.448 20.06 4.51198 20.124 4.63998C20.188 4.75698 20.257 5.008 20.332 5.392C20.353 5.392 20.385 5.38698 20.428 5.37598C20.471 5.35498 20.503 5.34399 20.524 5.34399C20.513 5.16299 20.487 4.97097 20.444 4.76797C20.401 4.55498 20.359 4.35197 20.316 4.15997C20.273 3.96797 20.231 3.79698 20.188 3.64798C20.156 3.48798 20.14 3.35998 20.14 3.26398C20.14 3.24298 20.14 3.21599 20.14 3.18399C20.151 3.15199 20.177 3.13599 20.22 3.13599C20.273 3.13599 20.343 3.19498 20.428 3.31198C20.513 3.42898 20.604 3.57898 20.7 3.75998C20.796 3.94098 20.887 4.13899 20.972 4.35199C21.068 4.55499 21.153 4.74698 21.228 4.92798C21.516 4.38398 21.841 3.97298 22.204 3.69598C22.577 3.40798 23.063 3.26398 23.66 3.26398C24.097 3.26398 24.455 3.31698 24.732 3.42398C25.009 3.51998 25.223 3.63198 25.372 3.75998C25.532 3.87698 25.639 3.98898 25.692 4.09598L25.788 4.25598C25.788 4.31998 25.756 4.36297 25.692 4.38397C25.415 4.11697 25.1 3.915 24.748 3.776C24.396 3.637 24.033 3.56799 23.66 3.56799C23.297 3.56799 23.025 3.61598 22.844 3.71198C22.673 3.79698 22.492 3.90398 22.3 4.03198C22.503 3.90398 22.689 3.803 22.86 3.728C23.041 3.653 23.303 3.616 23.644 3.616C24.017 3.616 24.375 3.691 24.716 3.84C25.057 3.979 25.351 4.15997 25.596 4.38397C25.543 4.40497 25.495 4.43199 25.452 4.46399C25.42 4.48499 25.404 4.52299 25.404 4.57599C25.457 4.57599 25.516 4.61299 25.58 4.68799C25.644 4.75199 25.703 4.83198 25.756 4.92798C25.809 5.02398 25.852 5.12499 25.884 5.23199C25.927 5.32799 25.948 5.40798 25.948 5.47198C25.948 5.65298 25.879 5.74399 25.74 5.74399C25.633 5.74399 25.505 5.70699 25.356 5.63199C25.324 5.62099 25.255 5.56299 25.148 5.45599C25.052 5.34899 24.929 5.24299 24.78 5.13599C24.631 5.01899 24.46 4.91198 24.268 4.81598C24.076 4.71998 23.863 4.672 23.628 4.672C23.436 4.672 23.265 4.71499 23.116 4.79999C22.977 4.87499 22.849 4.981 22.732 5.12C22.615 5.24799 22.508 5.39699 22.412 5.56799L22.204 5.952C22.364 5.664 22.54 5.403 22.732 5.168C22.945 4.891 23.212 4.75198 23.532 4.75198C23.809 4.75198 24.065 4.816 24.3 4.944C24.535 5.061 24.727 5.211 24.876 5.392C24.695 5.317 24.481 5.243 24.236 5.168C23.991 5.093 23.756 5.056 23.532 5.056C23.415 5.056 23.313 5.08299 23.228 5.13599C23.143 5.18899 23.068 5.25899 23.004 5.34399C22.951 5.41899 22.897 5.50398 22.844 5.59998C22.801 5.69598 22.753 5.78698 22.7 5.87198L22.492 5.90399C22.311 6.21299 22.161 6.57597 22.044 6.99197C21.937 7.39697 21.884 7.82397 21.884 8.27197C21.884 8.53897 21.895 8.77897 21.916 8.99197C21.948 9.20497 21.991 9.42398 22.044 9.64798L22.236 10.144L22.204 9.67999C22.183 9.31699 22.161 8.997 22.14 8.72C22.119 8.432 22.108 8.117 22.108 7.776C22.129 7.467 22.172 7.173 22.236 6.896C22.289 6.661 22.369 6.44299 22.476 6.23999C22.348 6.49599 22.263 6.789 22.22 7.12C22.167 7.483 22.14 7.86697 22.14 8.27197C22.14 8.59197 22.156 8.89599 22.188 9.18399C22.22 9.47199 22.257 9.75997 22.3 10.048C22.353 10.336 22.407 10.635 22.46 10.944C22.513 11.243 22.556 11.573 22.588 11.936L22.636 12.24L22.732 13.152L22.332 13.312ZM30.034 3.504C30.045 3.557 30.103 3.58398 30.21 3.58398H30.242C30.306 3.58398 30.349 3.58898 30.37 3.59998C30.925 3.77098 31.474 4.02099 32.018 4.35199C32.573 4.67199 33.069 5.06099 33.506 5.51999C33.954 5.96799 34.311 6.48 34.578 7.056C34.855 7.632 34.994 8.25099 34.994 8.91199C34.994 9.48799 34.882 10.043 34.658 10.576C34.434 11.109 34.125 11.573 33.73 11.968C34.135 11.616 34.455 11.179 34.69 10.656C34.935 10.123 35.058 9.552 35.058 8.944C35.058 8.261 34.914 7.62698 34.626 7.03998C34.338 6.44298 33.97 5.90897 33.522 5.43997C33.074 4.97097 32.573 4.57099 32.018 4.23999C31.474 3.89899 30.941 3.63699 30.418 3.45599C30.823 3.45599 31.234 3.547 31.65 3.728C32.077 3.909 32.482 4.149 32.866 4.448C33.25 4.736 33.602 5.07199 33.922 5.45599C34.253 5.82899 34.53 6.21297 34.754 6.60797L34.642 6.76797C34.855 7.08798 35.015 7.43498 35.122 7.80798C35.239 8.18098 35.298 8.56499 35.298 8.95999C35.298 9.71699 35.133 10.384 34.802 10.96C34.482 11.525 34.071 12 33.57 12.384C33.079 12.757 32.535 13.04 31.938 13.232C31.351 13.424 30.797 13.52 30.274 13.52C29.975 13.52 29.671 13.488 29.362 13.424C29.063 13.36 28.759 13.253 28.45 13.104V13.2C28.749 13.371 29.053 13.488 29.362 13.552C29.682 13.616 29.997 13.648 30.306 13.648C31.074 13.648 31.826 13.477 32.562 13.136C33.309 12.805 33.938 12.336 34.45 11.728C33.959 12.357 33.346 12.848 32.61 13.2C31.885 13.552 31.127 13.728 30.338 13.728C29.527 13.728 28.871 13.568 28.37 13.248C27.869 12.939 27.474 12.555 27.186 12.096C26.909 11.637 26.722 11.152 26.626 10.64C26.53 10.128 26.482 9.66898 26.482 9.26398C26.482 8.71998 26.551 8.187 26.69 7.664C26.839 7.141 27.063 6.661 27.362 6.224C27.661 5.787 28.045 5.41297 28.514 5.10397C28.983 4.78397 29.549 4.55998 30.21 4.43198L29.746 4.31998C29.522 4.26698 29.362 4.20299 29.266 4.12799C29.17 4.05299 29.122 3.98897 29.122 3.93597C29.122 3.85097 29.213 3.76 29.394 3.664C29.586 3.557 29.799 3.504 30.034 3.504ZM29.314 5.51999C29.602 5.41299 29.879 5.35999 30.146 5.35999C30.413 5.35999 30.615 5.40298 30.754 5.48798C30.903 5.56298 30.978 5.643 30.978 5.728C30.978 5.781 30.914 5.83999 30.786 5.90399C30.669 5.96799 30.514 6.05899 30.322 6.17599C30.141 6.28299 29.938 6.42098 29.714 6.59198C29.501 6.76298 29.298 6.98099 29.106 7.24799C28.925 7.50399 28.77 7.81899 28.642 8.19199C28.525 8.56499 28.466 9.003 28.466 9.504C28.466 10.24 28.631 10.795 28.962 11.168C29.293 11.541 29.751 11.728 30.338 11.728C30.711 11.728 31.09 11.664 31.474 11.536C31.869 11.408 32.221 11.227 32.53 10.992C32.85 10.757 33.106 10.469 33.298 10.128C33.501 9.78699 33.602 9.40298 33.602 8.97598C33.602 8.65598 33.543 8.33599 33.426 8.01599C33.319 7.69599 33.165 7.39197 32.962 7.10397C32.77 6.80497 32.535 6.52797 32.258 6.27197C31.991 6.01597 31.698 5.797 31.378 5.616C31.069 5.445 30.813 5.31699 30.61 5.23199C30.418 5.13599 30.279 5.04499 30.194 4.95999C30.109 5.00299 29.986 5.05599 29.826 5.12C29.677 5.173 29.474 5.25898 29.218 5.37598L29.314 5.51999ZM30.386 4.76797C30.877 4.92797 31.346 5.16798 31.794 5.48798C32.178 5.77598 32.53 6.09098 32.85 6.43198C32.541 6.06898 32.205 5.74399 31.842 5.45599C31.426 5.11499 30.962 4.84798 30.45 4.65598L30.386 4.76797ZM33.49 10.224C33.33 10.565 33.106 10.869 32.818 11.136C33.01 11.008 33.17 10.853 33.298 10.672C33.437 10.491 33.549 10.309 33.634 10.128C33.719 9.94699 33.783 9.78099 33.826 9.63199C33.858 9.49299 33.885 9.38099 33.906 9.29599C33.789 9.57299 33.65 9.883 33.49 10.224ZM34.562 11.6C34.551 11.621 34.535 11.643 34.514 11.664C34.503 11.675 34.493 11.68 34.482 11.68C34.471 11.68 34.498 11.627 34.562 11.52C34.626 11.403 34.701 11.269 34.786 11.12C34.882 10.96 34.973 10.795 35.058 10.624C35.133 10.496 35.186 10.384 35.218 10.288C35.069 10.747 34.85 11.184 34.562 11.6ZM35.458 9.008C35.458 9.179 35.447 9.34899 35.426 9.51999C35.405 9.67999 35.367 9.82899 35.314 9.96799C35.389 9.70099 35.426 9.40299 35.426 9.07199C35.426 8.82699 35.405 8.58699 35.362 8.35199C35.33 8.14899 35.287 7.95198 35.234 7.75998C35.287 7.95198 35.335 8.144 35.378 8.336C35.431 8.549 35.458 8.773 35.458 9.008ZM30.386 4.51199L30.242 4.448C30.231 4.469 30.215 4.49099 30.194 4.51199C30.173 4.53299 30.162 4.55499 30.162 4.57599C30.162 4.59699 30.173 4.629 30.194 4.672C30.226 4.704 30.253 4.73098 30.274 4.75198L30.386 4.51199ZM32.946 6.54398C32.914 6.50098 32.882 6.46398 32.85 6.43198C32.882 6.47498 32.914 6.51198 32.946 6.54398ZM41.132 11.776C41.068 11.776 41.004 11.808 40.94 11.872C40.716 11.957 40.481 12.032 40.236 12.096C40.001 12.149 39.756 12.176 39.5 12.176C38.775 12.176 38.231 11.968 37.868 11.552C37.505 11.125 37.324 10.512 37.324 9.71198C37.324 9.32798 37.34 8.944 37.372 8.56C37.404 8.187 37.425 7.83999 37.436 7.51999C37.404 7.85099 37.367 8.18099 37.324 8.51199C37.271 8.86399 37.244 9.232 37.244 9.616C37.244 9.808 37.26 10.053 37.292 10.352C37.335 10.651 37.431 10.944 37.58 11.232C37.729 11.509 37.959 11.755 38.268 11.968C38.577 12.171 39.004 12.272 39.548 12.272C39.804 12.272 40.049 12.245 40.284 12.192C40.529 12.128 40.764 12.053 40.988 11.968C40.839 12.149 40.636 12.293 40.38 12.4C40.135 12.507 39.841 12.56 39.5 12.56C39.063 12.56 38.636 12.469 38.22 12.288C37.815 12.107 37.505 11.803 37.292 11.376L37.388 11.2C37.196 10.859 37.089 10.555 37.068 10.288C37.047 10.011 37.025 9.73899 37.004 9.47198L37.276 6.672C37.329 6.192 37.367 5.71199 37.388 5.23199L37.34 5.19998C37.255 5.70098 37.185 6.18098 37.132 6.63998C37.079 7.08798 37.036 7.53099 37.004 7.96799V7.55197C37.068 7.06097 37.127 6.581 37.18 6.112C37.233 5.632 37.303 5.14698 37.388 4.65598C37.473 4.16498 37.58 3.653 37.708 3.12C37.847 2.587 38.028 2.01599 38.252 1.40799C38.551 1.00299 38.727 0.602977 38.78 0.207977C38.812 0.207977 38.844 0.212999 38.876 0.223999C38.908 0.234999 38.972 0.23999 39.068 0.23999C39.132 0.23999 39.185 0.255994 39.228 0.287994C39.281 0.308994 39.308 0.362998 39.308 0.447998C39.308 0.543998 39.276 0.687974 39.212 0.879974C39.233 0.879974 39.265 0.890987 39.308 0.911987C39.351 0.922987 39.383 0.927979 39.404 0.927979C39.553 0.671978 39.687 0.452973 39.804 0.271973C39.932 0.0909727 40.055 0 40.172 0C40.247 0 40.311 0.0479819 40.364 0.143982C40.428 0.228982 40.46 0.372989 40.46 0.575989C40.439 0.959989 40.375 1.323 40.268 1.664C40.172 2.005 40.065 2.33598 39.948 2.65598C39.831 2.97598 39.713 3.30099 39.596 3.63199C39.489 3.96299 39.409 4.309 39.356 4.672C39.292 5.088 39.228 5.515 39.164 5.952C39.1 6.379 39.041 6.80499 38.988 7.23199C38.935 7.65899 38.881 8.06899 38.828 8.46399C38.785 8.85899 38.753 9.22699 38.732 9.56799C38.732 9.87699 38.78 10.197 38.876 10.528C38.929 10.613 38.977 10.677 39.02 10.72C39.063 10.752 39.137 10.768 39.244 10.768C39.372 10.768 39.511 10.752 39.66 10.72C39.82 10.688 39.959 10.672 40.076 10.672C40.151 10.672 40.204 10.683 40.236 10.704C40.268 10.725 40.295 10.763 40.316 10.816C40.167 10.901 40.007 10.965 39.836 11.008C39.665 11.051 39.505 11.072 39.356 11.072H39.132C39.089 11.072 39.052 11.072 39.02 11.072C39.137 11.093 39.287 11.104 39.468 11.104C39.745 11.104 40.028 11.04 40.316 10.912C40.316 11.008 40.348 11.088 40.412 11.152C40.444 11.141 40.519 11.104 40.636 11.04C40.753 10.976 40.855 10.944 40.94 10.944C41.196 10.944 41.324 11.051 41.324 11.264C41.324 11.296 41.313 11.344 41.292 11.408C41.271 11.472 41.217 11.595 41.132 11.776ZM36.892 9.63199C36.892 9.55699 36.892 9.46099 36.892 9.34399C36.903 9.22699 36.913 9.10897 36.924 8.99197L36.956 8.62399C36.967 8.49599 36.977 8.38399 36.988 8.28799C36.977 8.44799 36.967 8.651 36.956 8.896C36.956 9.131 36.956 9.30698 36.956 9.42398V10.064C36.956 10.149 36.956 10.24 36.956 10.336C36.967 10.432 36.977 10.523 36.988 10.608C36.945 10.437 36.919 10.272 36.908 10.112C36.897 9.941 36.892 9.78099 36.892 9.63199ZM38.46 9.56799C38.46 9.32299 38.476 9.08299 38.508 8.84799C38.54 8.61299 38.567 8.37299 38.588 8.12799C38.535 8.37299 38.492 8.61299 38.46 8.84799C38.439 9.08299 38.417 9.32299 38.396 9.56799V9.79199C38.396 9.86699 38.401 9.94698 38.412 10.032V9.91998C38.412 9.86698 38.417 9.80799 38.428 9.74399C38.439 9.67999 38.449 9.62099 38.46 9.56799ZM36.988 8.27197C36.988 8.25097 36.988 8.235 36.988 8.224C36.999 8.213 37.004 8.20299 37.004 8.19199C37.004 8.23499 36.999 8.26097 36.988 8.27197ZM46.679 11.776C46.615 11.776 46.551 11.808 46.487 11.872C46.263 11.957 46.028 12.032 45.783 12.096C45.548 12.149 45.303 12.176 45.047 12.176C44.322 12.176 43.778 11.968 43.415 11.552C43.052 11.125 42.871 10.512 42.871 9.71198C42.871 9.32798 42.887 8.944 42.919 8.56C42.951 8.187 42.972 7.83999 42.983 7.51999C42.951 7.85099 42.914 8.18099 42.871 8.51199C42.818 8.86399 42.791 9.232 42.791 9.616C42.791 9.808 42.807 10.053 42.839 10.352C42.882 10.651 42.978 10.944 43.127 11.232C43.276 11.509 43.506 11.755 43.815 11.968C44.124 12.171 44.551 12.272 45.095 12.272C45.351 12.272 45.596 12.245 45.831 12.192C46.076 12.128 46.311 12.053 46.535 11.968C46.386 12.149 46.183 12.293 45.927 12.4C45.682 12.507 45.388 12.56 45.047 12.56C44.61 12.56 44.183 12.469 43.767 12.288C43.362 12.107 43.052 11.803 42.839 11.376L42.935 11.2C42.743 10.859 42.636 10.555 42.615 10.288C42.594 10.011 42.572 9.73899 42.551 9.47198L42.823 6.672C42.876 6.192 42.914 5.71199 42.935 5.23199L42.887 5.19998C42.802 5.70098 42.732 6.18098 42.679 6.63998C42.626 7.08798 42.583 7.53099 42.551 7.96799V7.55197C42.615 7.06097 42.674 6.581 42.727 6.112C42.78 5.632 42.85 5.14698 42.935 4.65598C43.02 4.16498 43.127 3.653 43.255 3.12C43.394 2.587 43.575 2.01599 43.799 1.40799C44.098 1.00299 44.274 0.602977 44.327 0.207977C44.359 0.207977 44.391 0.212999 44.423 0.223999C44.455 0.234999 44.519 0.23999 44.615 0.23999C44.679 0.23999 44.732 0.255994 44.775 0.287994C44.828 0.308994 44.855 0.362998 44.855 0.447998C44.855 0.543998 44.823 0.687974 44.759 0.879974C44.78 0.879974 44.812 0.890987 44.855 0.911987C44.898 0.922987 44.93 0.927979 44.951 0.927979C45.1 0.671978 45.234 0.452973 45.351 0.271973C45.479 0.0909727 45.602 0 45.719 0C45.794 0 45.858 0.0479819 45.911 0.143982C45.975 0.228982 46.007 0.372989 46.007 0.575989C45.986 0.959989 45.922 1.323 45.815 1.664C45.719 2.005 45.612 2.33598 45.495 2.65598C45.378 2.97598 45.26 3.30099 45.143 3.63199C45.036 3.96299 44.956 4.309 44.903 4.672C44.839 5.088 44.775 5.515 44.711 5.952C44.647 6.379 44.588 6.80499 44.535 7.23199C44.482 7.65899 44.428 8.06899 44.375 8.46399C44.332 8.85899 44.3 9.22699 44.279 9.56799C44.279 9.87699 44.327 10.197 44.423 10.528C44.476 10.613 44.524 10.677 44.567 10.72C44.61 10.752 44.684 10.768 44.791 10.768C44.919 10.768 45.058 10.752 45.207 10.72C45.367 10.688 45.506 10.672 45.623 10.672C45.698 10.672 45.751 10.683 45.783 10.704C45.815 10.725 45.842 10.763 45.863 10.816C45.714 10.901 45.554 10.965 45.383 11.008C45.212 11.051 45.052 11.072 44.903 11.072H44.679C44.636 11.072 44.599 11.072 44.567 11.072C44.684 11.093 44.834 11.104 45.015 11.104C45.292 11.104 45.575 11.04 45.863 10.912C45.863 11.008 45.895 11.088 45.959 11.152C45.991 11.141 46.066 11.104 46.183 11.04C46.3 10.976 46.402 10.944 46.487 10.944C46.743 10.944 46.871 11.051 46.871 11.264C46.871 11.296 46.86 11.344 46.839 11.408C46.818 11.472 46.764 11.595 46.679 11.776ZM42.439 9.63199C42.439 9.55699 42.439 9.46099 42.439 9.34399C42.45 9.22699 42.46 9.10897 42.471 8.99197L42.503 8.62399C42.514 8.49599 42.524 8.38399 42.535 8.28799C42.524 8.44799 42.514 8.651 42.503 8.896C42.503 9.131 42.503 9.30698 42.503 9.42398V10.064C42.503 10.149 42.503 10.24 42.503 10.336C42.514 10.432 42.524 10.523 42.535 10.608C42.492 10.437 42.466 10.272 42.455 10.112C42.444 9.941 42.439 9.78099 42.439 9.63199ZM44.007 9.56799C44.007 9.32299 44.023 9.08299 44.055 8.84799C44.087 8.61299 44.114 8.37299 44.135 8.12799C44.082 8.37299 44.039 8.61299 44.007 8.84799C43.986 9.08299 43.964 9.32299 43.943 9.56799V9.79199C43.943 9.86699 43.948 9.94698 43.959 10.032V9.91998C43.959 9.86698 43.964 9.80799 43.975 9.74399C43.986 9.67999 43.996 9.62099 44.007 9.56799ZM42.535 8.27197C42.535 8.25097 42.535 8.235 42.535 8.224C42.546 8.213 42.551 8.20299 42.551 8.19199C42.551 8.23499 42.546 8.26097 42.535 8.27197ZM59.532 5.13599C59.436 5.13599 59.302 5.15199 59.132 5.18399C58.972 5.21599 58.806 5.25299 58.636 5.29599C58.476 5.33899 58.326 5.38098 58.188 5.42398C58.06 5.46698 57.98 5.49899 57.948 5.51999C58.225 5.47699 58.481 5.42898 58.716 5.37598C58.95 5.31198 59.206 5.28 59.484 5.28C59.43 5.376 59.361 5.451 59.276 5.504C59.19 5.557 59.094 5.59999 58.988 5.63199C58.892 5.65299 58.785 5.67498 58.668 5.69598C58.55 5.70698 58.428 5.72798 58.3 5.75998L58.188 5.616C57.985 5.691 57.83 5.73898 57.724 5.75998C57.617 5.77098 57.505 5.776 57.388 5.776C57.26 5.776 57.126 5.776 56.988 5.776C56.86 5.765 56.716 5.75998 56.556 5.75998C56.556 5.81298 56.55 5.856 56.54 5.888C56.785 5.888 56.993 5.888 57.164 5.888C57.334 5.877 57.542 5.85597 57.788 5.82397C57.553 5.86697 57.345 5.89898 57.164 5.91998C56.993 5.94098 56.785 5.952 56.54 5.952C56.497 6.197 56.46 6.437 56.428 6.672C56.396 6.907 56.38 7.13599 56.38 7.35999C56.38 7.48799 56.385 7.63698 56.396 7.80798C56.406 7.97898 56.417 8.155 56.428 8.336C56.449 8.507 56.465 8.672 56.476 8.832C56.486 8.981 56.492 9.093 56.492 9.168V10.128C56.545 10.341 56.7 10.501 56.956 10.608C57.212 10.715 57.58 10.768 58.06 10.768H58.572C58.753 10.768 58.876 10.789 58.94 10.832C59.014 10.864 59.052 10.912 59.052 10.976C59.052 11.029 59.009 11.061 58.924 11.072C58.838 11.072 58.753 11.072 58.668 11.072C58.358 11.072 58.033 11.051 57.692 11.008C57.372 10.965 57.057 10.917 56.748 10.864C57.057 10.939 57.382 11.008 57.724 11.072C58.076 11.125 58.417 11.152 58.748 11.152H58.892C58.934 11.152 58.982 11.147 59.036 11.136C59.036 11.189 59.036 11.237 59.036 11.28C59.046 11.323 59.062 11.371 59.084 11.424L59.212 11.392C59.244 11.381 59.281 11.376 59.324 11.376C59.366 11.365 59.398 11.349 59.42 11.328C59.761 11.36 59.932 11.477 59.932 11.68C59.932 11.797 59.9 11.893 59.836 11.968C59.772 12.043 59.692 12.101 59.596 12.144C59.5 12.187 59.393 12.219 59.276 12.24C59.158 12.251 59.046 12.256 58.94 12.256C58.566 12.256 58.198 12.235 57.836 12.192C57.484 12.139 57.137 12.085 56.796 12.032C57.094 12.139 57.473 12.224 57.932 12.288C58.39 12.352 58.854 12.384 59.324 12.384C59.206 12.459 59.068 12.517 58.908 12.56C58.748 12.603 58.582 12.624 58.412 12.624L57.26 12.48C57.11 12.459 56.993 12.437 56.908 12.416C56.833 12.395 56.758 12.373 56.684 12.352C56.609 12.32 56.524 12.288 56.428 12.256C56.342 12.224 56.22 12.187 56.06 12.144V11.968C55.782 11.893 55.558 11.765 55.388 11.584C55.217 11.403 55.084 11.205 54.988 10.992C54.892 10.779 54.828 10.565 54.796 10.352C54.764 10.128 54.748 9.93098 54.748 9.75998C54.748 9.57898 54.748 9.41298 54.748 9.26398C54.758 9.10398 54.764 8.944 54.764 8.784C54.764 8.667 54.758 8.517 54.748 8.336C54.748 8.155 54.742 7.96298 54.732 7.75998C54.721 7.55698 54.71 7.34899 54.7 7.13599C54.7 6.92299 54.7 6.71998 54.7 6.52798C54.7 6.41098 54.7 6.29899 54.7 6.19199C54.71 6.08499 54.721 5.98899 54.732 5.90399H54.572C54.561 5.97899 54.556 6.06397 54.556 6.15997V6.448C54.556 6.757 54.561 7.06698 54.572 7.37598C54.582 7.67498 54.588 7.95198 54.588 8.20798C54.598 8.46398 54.609 8.68797 54.62 8.87997C54.63 9.06097 54.636 9.195 54.636 9.28V9.91998V10.048C54.604 9.75997 54.572 9.34898 54.54 8.81598C54.508 8.19698 54.492 7.51497 54.492 6.76797V6.47998C54.492 6.36298 54.492 6.25098 54.492 6.14398C54.502 6.03698 54.518 5.95699 54.54 5.90399L53.996 5.87198C53.878 5.79698 53.761 5.73898 53.644 5.69598C53.526 5.65298 53.42 5.63199 53.324 5.63199V5.31198C53.324 5.24798 53.329 5.19498 53.34 5.15198C53.361 5.09898 53.414 5.07199 53.5 5.07199C53.521 5.07199 53.574 5.08297 53.66 5.10397V4.91199C53.542 4.84799 53.446 4.76298 53.372 4.65598C53.297 4.53898 53.26 4.42099 53.26 4.30399C53.26 4.02699 53.457 3.888 53.852 3.888C54.001 3.888 54.156 3.89898 54.316 3.91998C54.476 3.94098 54.641 3.95699 54.812 3.96799C54.854 3.73299 54.892 3.52499 54.924 3.34399C54.956 3.15199 54.988 2.97099 55.02 2.79999C55.052 2.61899 55.089 2.44297 55.132 2.27197C55.174 2.09097 55.228 1.90398 55.292 1.71198C55.388 1.49898 55.462 1.26899 55.516 1.02399C55.569 0.767987 55.606 0.516973 55.628 0.271973L55.964 0.287994C56.017 0.287994 56.06 0.303999 56.092 0.335999C56.134 0.367999 56.156 0.442998 56.156 0.559998C56.156 0.655998 56.14 0.784 56.108 0.944L56.3 0.991974C56.385 0.703974 56.486 0.468994 56.604 0.287994C56.732 0.106994 56.854 0.0159912 56.972 0.0159912C57.153 0.0159912 57.265 0.24498 57.308 0.703979V0.991974C57.308 1.26897 57.286 1.531 57.244 1.776C57.212 2.011 57.169 2.24498 57.116 2.47998C57.062 2.71498 57.009 2.95498 56.956 3.19998C56.902 3.44498 56.854 3.712 56.812 4C57.046 4.032 57.276 4.04797 57.5 4.04797C57.606 4.04797 57.713 4.04797 57.82 4.04797C57.926 4.03697 58.033 4.03198 58.14 4.03198C58.246 4.03198 58.358 3.98899 58.476 3.90399C58.593 3.81899 58.7 3.776 58.796 3.776C58.881 3.776 58.945 3.80299 58.988 3.85599C59.03 3.90899 59.052 3.96798 59.052 4.03198C58.86 4.08498 58.668 4.14398 58.476 4.20798C58.294 4.26098 58.118 4.31498 57.948 4.36798C58.118 4.34698 58.3 4.30898 58.492 4.25598C58.684 4.19198 58.886 4.13299 59.1 4.07999C59.1 4.13299 59.1 4.181 59.1 4.224C59.11 4.267 59.126 4.31498 59.148 4.36798C59.169 4.36798 59.196 4.36299 59.228 4.35199C59.292 4.33099 59.329 4.31998 59.34 4.31998C59.446 4.37298 59.516 4.44298 59.548 4.52798C59.58 4.60298 59.596 4.688 59.596 4.784C59.596 4.859 59.585 4.92797 59.564 4.99197C59.542 5.04497 59.532 5.09299 59.532 5.13599ZM55.292 11.04C55.142 10.752 55.062 10.469 55.052 10.192C55.041 9.91499 55.025 9.65299 55.004 9.40799L54.86 6.97598L54.812 7.26398C54.812 7.97898 54.833 8.62897 54.876 9.21597C54.929 9.79197 55.004 10.24 55.1 10.56C55.1 10.656 55.094 10.72 55.084 10.752C55.084 10.784 55.084 10.811 55.084 10.832C55.084 10.853 55.094 10.88 55.116 10.912C55.148 10.944 55.206 10.987 55.292 11.04ZM56.204 10.176C56.182 10.091 56.172 9.99999 56.172 9.90399V9.12C56.161 9.227 56.15 9.33297 56.14 9.43997C56.129 9.53597 56.124 9.63699 56.124 9.74399C56.124 10.021 56.14 10.235 56.172 10.384C56.204 10.512 56.268 10.619 56.364 10.704C56.31 10.64 56.273 10.571 56.252 10.496C56.241 10.411 56.225 10.304 56.204 10.176ZM64.519 3.504C64.529 3.557 64.588 3.58398 64.695 3.58398H64.727C64.791 3.58398 64.833 3.58898 64.855 3.59998C65.409 3.77098 65.959 4.02099 66.503 4.35199C67.057 4.67199 67.553 5.06099 67.991 5.51999C68.439 5.96799 68.796 6.48 69.063 7.056C69.34 7.632 69.479 8.25099 69.479 8.91199C69.479 9.48799 69.367 10.043 69.142 10.576C68.919 11.109 68.609 11.573 68.215 11.968C68.62 11.616 68.94 11.179 69.175 10.656C69.42 10.123 69.543 9.552 69.543 8.944C69.543 8.261 69.399 7.62698 69.111 7.03998C68.823 6.44298 68.455 5.90897 68.007 5.43997C67.559 4.97097 67.057 4.57099 66.503 4.23999C65.959 3.89899 65.425 3.63699 64.903 3.45599C65.308 3.45599 65.719 3.547 66.135 3.728C66.561 3.909 66.967 4.149 67.351 4.448C67.735 4.736 68.087 5.07199 68.406 5.45599C68.737 5.82899 69.015 6.21297 69.239 6.60797L69.127 6.76797C69.34 7.08798 69.5 7.43498 69.607 7.80798C69.724 8.18098 69.783 8.56499 69.783 8.95999C69.783 9.71699 69.617 10.384 69.287 10.96C68.967 11.525 68.556 12 68.055 12.384C67.564 12.757 67.02 13.04 66.423 13.232C65.836 13.424 65.281 13.52 64.759 13.52C64.46 13.52 64.156 13.488 63.847 13.424C63.548 13.36 63.244 13.253 62.935 13.104V13.2C63.233 13.371 63.537 13.488 63.847 13.552C64.167 13.616 64.481 13.648 64.791 13.648C65.559 13.648 66.311 13.477 67.047 13.136C67.793 12.805 68.423 12.336 68.935 11.728C68.444 12.357 67.831 12.848 67.095 13.2C66.369 13.552 65.612 13.728 64.823 13.728C64.012 13.728 63.356 13.568 62.855 13.248C62.353 12.939 61.959 12.555 61.671 12.096C61.393 11.637 61.207 11.152 61.111 10.64C61.015 10.128 60.967 9.66898 60.967 9.26398C60.967 8.71998 61.036 8.187 61.175 7.664C61.324 7.141 61.548 6.661 61.847 6.224C62.145 5.787 62.529 5.41297 62.999 5.10397C63.468 4.78397 64.033 4.55998 64.695 4.43198L64.231 4.31998C64.007 4.26698 63.847 4.20299 63.751 4.12799C63.655 4.05299 63.607 3.98897 63.607 3.93597C63.607 3.85097 63.697 3.76 63.879 3.664C64.071 3.557 64.284 3.504 64.519 3.504ZM63.799 5.51999C64.087 5.41299 64.364 5.35999 64.631 5.35999C64.897 5.35999 65.1 5.40298 65.239 5.48798C65.388 5.56298 65.463 5.643 65.463 5.728C65.463 5.781 65.399 5.83999 65.271 5.90399C65.153 5.96799 64.999 6.05899 64.807 6.17599C64.625 6.28299 64.423 6.42098 64.199 6.59198C63.985 6.76298 63.783 6.98099 63.591 7.24799C63.409 7.50399 63.255 7.81899 63.127 8.19199C63.009 8.56499 62.951 9.003 62.951 9.504C62.951 10.24 63.116 10.795 63.447 11.168C63.777 11.541 64.236 11.728 64.823 11.728C65.196 11.728 65.575 11.664 65.959 11.536C66.353 11.408 66.705 11.227 67.015 10.992C67.335 10.757 67.591 10.469 67.783 10.128C67.985 9.78699 68.087 9.40298 68.087 8.97598C68.087 8.65598 68.028 8.33599 67.911 8.01599C67.804 7.69599 67.649 7.39197 67.447 7.10397C67.255 6.80497 67.02 6.52797 66.743 6.27197C66.476 6.01597 66.183 5.797 65.863 5.616C65.553 5.445 65.297 5.31699 65.095 5.23199C64.903 5.13599 64.764 5.04499 64.679 4.95999C64.593 5.00299 64.471 5.05599 64.311 5.12C64.161 5.173 63.959 5.25898 63.703 5.37598L63.799 5.51999ZM64.871 4.76797C65.361 4.92797 65.831 5.16798 66.279 5.48798C66.663 5.77598 67.015 6.09098 67.335 6.43198C67.025 6.06898 66.689 5.74399 66.327 5.45599C65.911 5.11499 65.447 4.84798 64.935 4.65598L64.871 4.76797ZM67.975 10.224C67.815 10.565 67.591 10.869 67.303 11.136C67.495 11.008 67.655 10.853 67.783 10.672C67.921 10.491 68.033 10.309 68.119 10.128C68.204 9.94699 68.268 9.78099 68.311 9.63199C68.343 9.49299 68.369 9.38099 68.391 9.29599C68.273 9.57299 68.135 9.883 67.975 10.224ZM69.047 11.6C69.036 11.621 69.02 11.643 68.999 11.664C68.988 11.675 68.977 11.68 68.967 11.68C68.956 11.68 68.983 11.627 69.047 11.52C69.111 11.403 69.185 11.269 69.271 11.12C69.367 10.96 69.457 10.795 69.543 10.624C69.617 10.496 69.671 10.384 69.703 10.288C69.553 10.747 69.335 11.184 69.047 11.6ZM69.943 9.008C69.943 9.179 69.932 9.34899 69.911 9.51999C69.889 9.67999 69.852 9.82899 69.799 9.96799C69.873 9.70099 69.911 9.40299 69.911 9.07199C69.911 8.82699 69.889 8.58699 69.847 8.35199C69.815 8.14899 69.772 7.95198 69.719 7.75998C69.772 7.95198 69.82 8.144 69.863 8.336C69.916 8.549 69.943 8.773 69.943 9.008ZM64.871 4.51199L64.727 4.448C64.716 4.469 64.7 4.49099 64.679 4.51199C64.657 4.53299 64.647 4.55499 64.647 4.57599C64.647 4.59699 64.657 4.629 64.679 4.672C64.711 4.704 64.737 4.73098 64.759 4.75198L64.871 4.51199ZM67.431 6.54398C67.399 6.50098 67.367 6.46398 67.335 6.43198C67.367 6.47498 67.399 6.51198 67.431 6.54398ZM82.794 13.424C82.389 13.563 82.08 13.637 81.866 13.648C81.653 13.669 81.466 13.685 81.306 13.696C80.709 13.696 80.17 13.584 79.69 13.36C79.21 13.136 78.8 12.832 78.458 12.448C78.117 12.064 77.85 11.616 77.658 11.104C77.477 10.581 77.386 10.027 77.386 9.43997C77.386 9.09897 77.418 8.74697 77.482 8.38397C77.546 8.01097 77.642 7.64799 77.77 7.29599C77.898 6.93299 78.064 6.59699 78.266 6.28799C78.458 5.97899 78.688 5.70099 78.954 5.45599C78.677 5.67999 78.442 5.94698 78.25 6.25598C78.048 6.56498 77.877 6.90098 77.738 7.26398C77.6 7.61598 77.498 7.98398 77.434 8.36798C77.37 8.74098 77.338 9.10399 77.338 9.45599C77.338 9.90399 77.408 10.384 77.546 10.896C77.696 11.397 77.93 11.867 78.25 12.304C78.57 12.731 78.981 13.088 79.482 13.376C79.994 13.664 80.613 13.808 81.338 13.808C81.68 13.808 82.037 13.76 82.41 13.664C82.005 13.931 81.552 14.064 81.05 14.064C80.645 14.064 80.261 14 79.898 13.872C79.546 13.755 79.216 13.584 78.906 13.36C78.608 13.147 78.336 12.891 78.09 12.592C77.845 12.293 77.637 11.973 77.466 11.632L77.61 11.504C77.429 11.141 77.296 10.779 77.21 10.416C77.136 10.053 77.098 9.68498 77.098 9.31198C77.098 8.76798 77.173 8.24499 77.322 7.74399C77.482 7.24299 77.69 6.76798 77.946 6.31998L78.33 5.79199C78.394 5.67499 78.485 5.55697 78.602 5.43997C78.73 5.32297 78.869 5.21097 79.018 5.10397C79.168 4.98697 79.322 4.88499 79.482 4.79999C79.653 4.70399 79.813 4.61898 79.962 4.54398C80.346 4.35198 80.73 4.18098 81.114 4.03198C81.498 3.87198 81.946 3.75499 82.458 3.67999L82.394 3.63199C81.413 3.72799 80.581 3.96799 79.898 4.35199C79.216 4.72499 78.661 5.184 78.234 5.728C77.808 6.272 77.498 6.86899 77.306 7.51999C77.114 8.15999 77.018 8.78899 77.018 9.40799C77.018 9.73899 77.045 10.075 77.098 10.416C77.162 10.747 77.253 11.077 77.37 11.408C77.104 10.768 76.97 10.091 76.97 9.37598C76.97 8.67198 77.088 7.973 77.322 7.28C77.557 6.587 77.925 5.94699 78.426 5.35999C79.066 4.77299 79.765 4.32499 80.522 4.01599C81.28 3.69599 82.01 3.53598 82.714 3.53598C82.938 3.53598 83.168 3.57298 83.402 3.64798C83.637 3.72298 83.85 3.84 84.042 4C84.234 4.149 84.389 4.34698 84.506 4.59198C84.634 4.83698 84.698 5.13598 84.698 5.48798C84.698 5.77598 84.629 6.12798 84.49 6.54398C84.352 6.95998 84.144 7.36498 83.866 7.75998C83.6 8.14398 83.264 8.47498 82.858 8.75198C82.453 9.01898 81.984 9.15198 81.45 9.15198H80.922C80.528 9.06698 80.165 8.97098 79.834 8.86398C79.514 8.74698 79.21 8.65598 78.922 8.59198C78.88 8.76298 78.853 8.92798 78.842 9.08798C78.842 9.23698 78.842 9.38698 78.842 9.53598C78.842 9.84498 78.874 10.149 78.938 10.448C79.013 10.736 79.125 11.003 79.274 11.248C79.424 11.493 79.61 11.701 79.834 11.872C80.069 12.032 80.352 12.133 80.682 12.176C80.885 12.219 81.061 12.245 81.21 12.256C81.36 12.256 81.482 12.261 81.578 12.272C81.685 12.272 81.76 12.288 81.802 12.32C81.856 12.341 81.882 12.389 81.882 12.464C81.776 12.496 81.664 12.517 81.546 12.528C81.44 12.539 81.328 12.544 81.21 12.544C80.837 12.544 80.501 12.485 80.202 12.368C79.904 12.24 79.648 12.096 79.434 11.936C79.68 12.181 79.973 12.357 80.314 12.464C80.656 12.56 80.992 12.608 81.322 12.608C81.504 12.608 81.69 12.592 81.882 12.56C81.861 12.624 81.85 12.661 81.85 12.672C81.85 12.736 81.877 12.779 81.93 12.8C81.973 12.789 82.048 12.763 82.154 12.72C82.261 12.667 82.368 12.619 82.474 12.576C82.592 12.523 82.704 12.48 82.81 12.448C82.917 12.405 82.992 12.384 83.034 12.384C83.088 12.384 83.136 12.395 83.178 12.416C83.221 12.427 83.242 12.485 83.242 12.592C83.242 12.699 83.205 12.827 83.13 12.976C83.056 13.125 82.944 13.275 82.794 13.424ZM80.586 7.08798L80.938 7.15198C81.056 7.17298 81.162 7.18399 81.258 7.18399C81.365 7.18399 81.488 7.15198 81.626 7.08798C81.776 7.01298 81.92 6.912 82.058 6.784C82.208 6.656 82.336 6.49599 82.442 6.30399C82.56 6.11199 82.645 5.89298 82.698 5.64798L82.73 5.55197C82.581 5.55197 82.357 5.589 82.058 5.664C81.76 5.739 81.45 5.83999 81.13 5.96799C80.81 6.08499 80.512 6.22899 80.234 6.39999C79.957 6.55999 79.765 6.73598 79.658 6.92798C79.818 6.95998 79.973 6.99199 80.122 7.02399C80.282 7.04499 80.437 7.06698 80.586 7.08798ZM79.85 8.27197C79.872 8.25097 79.882 8.219 79.882 8.17599C79.893 8.13299 79.898 8.10099 79.898 8.07999L79.146 7.80798L79.066 8.03198L79.85 8.27197ZM79.402 11.904C79.328 11.819 79.253 11.733 79.178 11.648C79.114 11.573 79.061 11.499 79.018 11.424C79.114 11.605 79.242 11.765 79.402 11.904ZM92.494 12.368C92.505 12.315 92.51 12.272 92.51 12.24V12.096C92.51 11.861 92.435 11.584 92.286 11.264C92.147 10.944 91.971 10.629 91.758 10.32C91.545 10.011 91.321 9.72299 91.086 9.45599C90.851 9.17899 90.649 8.95999 90.478 8.79999L90.462 8.832C90.686 9.099 90.91 9.37098 91.134 9.64798C91.369 9.91498 91.577 10.187 91.758 10.464C91.95 10.731 92.105 11.003 92.222 11.28C92.35 11.557 92.414 11.829 92.414 12.096V12.24C92.414 12.272 92.409 12.315 92.398 12.368C92.302 12.304 92.233 12.229 92.19 12.144C92.158 12.048 92.131 11.963 92.11 11.888C92.099 11.803 92.089 11.733 92.078 11.68C92.078 11.627 92.057 11.6 92.014 11.6C91.95 11.451 91.891 11.333 91.838 11.248C91.785 11.152 91.715 11.029 91.63 10.88L91.726 10.688C91.459 10.432 91.214 10.165 90.99 9.888C90.777 9.611 90.547 9.317 90.302 9.008L90.238 9.07199C90.483 9.37099 90.691 9.63199 90.862 9.85599C91.033 10.069 91.145 10.219 91.198 10.304C91.166 10.251 91.075 10.149 90.926 10C90.766 9.829 90.521 9.54099 90.19 9.13599C89.785 9.58399 89.417 10.032 89.086 10.48C88.766 10.917 88.462 11.355 88.174 11.792C88.099 11.845 88.041 11.941 87.998 12.08C87.955 12.208 87.913 12.341 87.87 12.48C87.827 12.619 87.774 12.741 87.71 12.848C87.657 12.944 87.577 12.992 87.47 12.992C87.427 12.992 87.374 12.96 87.31 12.896C87.491 12.619 87.625 12.357 87.71 12.112C87.806 11.856 87.865 11.701 87.886 11.648C87.737 11.797 87.63 11.984 87.566 12.208C87.502 12.421 87.401 12.635 87.262 12.848C87.241 12.827 87.209 12.8 87.166 12.768C87.123 12.725 87.075 12.704 87.022 12.704L86.878 12.992C86.835 13.013 86.782 13.024 86.718 13.024C86.643 13.024 86.574 12.997 86.51 12.944C86.457 12.88 86.409 12.811 86.366 12.736C86.323 12.661 86.286 12.592 86.254 12.528C86.233 12.464 86.217 12.427 86.206 12.416L86.254 12.368C86.307 12.315 86.371 12.213 86.446 12.064C86.521 11.915 86.611 11.733 86.718 11.52C86.835 11.307 86.969 11.072 87.118 10.816C87.267 10.56 87.443 10.293 87.646 10.016C87.859 9.72799 88.073 9.429 88.286 9.12C88.51 8.8 88.729 8.50699 88.942 8.23999C88.526 8.70899 88.131 9.21598 87.758 9.75998C87.385 10.293 87.043 10.827 86.734 11.36C86.638 11.573 86.542 11.76 86.446 11.92C86.35 12.08 86.254 12.197 86.158 12.272C86.137 12.24 86.126 12.176 86.126 12.08C86.126 12.005 86.147 11.899 86.19 11.76C86.243 11.621 86.307 11.472 86.382 11.312C86.467 11.152 86.558 10.992 86.654 10.832C86.761 10.661 86.867 10.501 86.974 10.352L87.118 10.4C87.363 9.90899 87.651 9.46699 87.982 9.07199C88.313 8.67699 88.633 8.27698 88.942 7.87198L88.83 7.79199C88.585 8.10099 88.339 8.41599 88.094 8.73599C87.859 9.05599 87.625 9.387 87.39 9.728C87.614 9.387 87.838 9.05599 88.062 8.73599C88.297 8.40499 88.537 8.07998 88.782 7.75998C88.494 7.54698 88.211 7.349 87.934 7.168C87.667 6.987 87.395 6.77898 87.118 6.54398C86.841 6.30898 86.553 6.02698 86.254 5.69598C85.966 5.35498 85.662 4.92299 85.342 4.39999L85.726 4.14398C85.779 4.14398 85.833 4.17599 85.886 4.23999C85.95 4.29299 86.025 4.39498 86.11 4.54398L86.254 4.39999C86.169 4.19699 86.126 4.02098 86.126 3.87198C86.126 3.55198 86.243 3.392 86.478 3.392C86.585 3.392 86.723 3.47199 86.894 3.63199C87.075 3.79199 87.278 3.989 87.502 4.224C87.726 4.459 87.971 4.70399 88.238 4.95999C88.505 5.20499 88.787 5.41898 89.086 5.59998L89.982 6.36798L90.958 4.73599C91.043 4.69299 91.139 4.62898 91.246 4.54398C91.363 4.44798 91.475 4.35198 91.582 4.25598C91.699 4.14898 91.817 4.04297 91.934 3.93597C92.051 3.81897 92.158 3.71699 92.254 3.63199C92.275 3.71699 92.329 3.78097 92.414 3.82397C92.499 3.86697 92.542 3.93099 92.542 4.01599C92.542 4.11199 92.446 4.23999 92.254 4.39999C92.318 4.46399 92.366 4.49597 92.398 4.49597C92.601 4.38897 92.793 4.336 92.974 4.336C93.113 4.336 93.225 4.36798 93.31 4.43198C93.395 4.48498 93.438 4.57099 93.438 4.68799C93.438 4.82699 93.358 5.00297 93.198 5.21597C93.038 5.42897 92.846 5.66398 92.622 5.91998C92.398 6.17598 92.169 6.44799 91.934 6.73599C91.699 7.01299 91.513 7.29099 91.374 7.56799C91.566 7.84499 91.806 8.14898 92.094 8.47998C92.393 8.81098 92.675 9.16298 92.942 9.53598C93.219 9.89898 93.454 10.277 93.646 10.672C93.849 11.067 93.95 11.472 93.95 11.888C93.95 12.059 93.918 12.16 93.854 12.192C93.801 12.213 93.747 12.224 93.694 12.224C93.673 12.032 93.646 11.84 93.614 11.648C93.582 11.456 93.529 11.264 93.454 11.072L93.31 10.784C93.289 10.773 93.257 10.747 93.214 10.704L93.406 11.072C93.481 11.264 93.529 11.451 93.55 11.632C93.582 11.803 93.598 11.984 93.598 12.176C93.545 12.176 93.497 12.181 93.454 12.192C93.411 12.192 93.379 12.203 93.358 12.224V12.512C93.273 12.715 93.161 12.816 93.022 12.816C92.926 12.816 92.825 12.779 92.718 12.704C92.622 12.629 92.547 12.565 92.494 12.512V12.368ZM88.222 11.12C88.371 10.971 88.51 10.789 88.638 10.576C88.755 10.373 88.889 10.176 89.038 9.98398C88.889 10.155 88.739 10.325 88.59 10.496C88.43 10.667 88.307 10.875 88.222 11.12ZM91.39 8C91.582 8.341 91.811 8.68299 92.078 9.02399C92.345 9.35499 92.611 9.701 92.878 10.064C92.633 9.701 92.377 9.34397 92.11 8.99197C91.843 8.63997 91.603 8.309 91.39 8ZM88.206 7.168L88.158 7.21597C88.169 7.22697 88.206 7.25898 88.27 7.31198C88.334 7.35498 88.403 7.40299 88.478 7.45599C88.563 7.50899 88.638 7.563 88.702 7.616C88.766 7.659 88.809 7.68498 88.83 7.69598L88.878 7.63199L88.206 7.168ZM89.054 7.74399L88.926 7.664L88.878 7.728L88.99 7.80798L89.054 7.74399ZM96.708 17.776C96.729 17.179 96.745 16.587 96.756 16C96.767 15.424 96.772 14.811 96.772 14.16C96.772 13.883 96.767 13.605 96.756 13.328C96.745 13.061 96.729 12.8 96.708 12.544V14.304C96.708 14.891 96.697 15.472 96.676 16.048C96.665 16.635 96.628 17.211 96.564 17.776C96.511 17.68 96.463 17.579 96.42 17.472C96.377 17.376 96.345 17.269 96.324 17.152C96.345 16.864 96.356 16.597 96.356 16.352C96.367 16.117 96.372 15.856 96.372 15.568L96.564 15.472C96.532 15.248 96.511 15.019 96.5 14.784C96.489 14.56 96.484 14.336 96.484 14.112C96.484 13.867 96.484 13.627 96.484 13.392C96.495 13.168 96.5 12.933 96.5 12.688C96.5 12.389 96.489 12.096 96.468 11.808C96.457 11.509 96.425 11.211 96.372 10.912H96.324C96.345 11.36 96.361 11.803 96.372 12.24C96.393 12.677 96.404 13.115 96.404 13.552C96.404 13.744 96.399 13.936 96.388 14.128L96.372 14.544C96.351 13.52 96.313 12.517 96.26 11.536C96.217 10.491 96.143 9.41898 96.036 8.31998L96.1 6.99197C95.983 6.98097 95.86 6.97598 95.732 6.97598H95.364L95.316 6.60797C95.316 6.55497 95.353 6.50699 95.428 6.46399C95.503 6.42099 95.652 6.39999 95.876 6.39999H96.036V6.20798C95.684 6.16498 95.407 6.09098 95.204 5.98398C95.012 5.87698 94.916 5.76498 94.916 5.64798C94.916 5.54098 95.012 5.45098 95.204 5.37598C95.396 5.29098 95.641 5.22699 95.94 5.18399C96.249 5.13099 96.585 5.09299 96.948 5.07199C97.311 5.05099 97.663 5.03998 98.004 5.03998C98.377 5.03998 98.777 5.05099 99.204 5.07199C99.641 5.09299 100.079 5.14699 100.516 5.23199C100.953 5.31699 101.375 5.45099 101.78 5.63199C102.196 5.80299 102.569 6.04798 102.9 6.36798C103.231 6.67698 103.503 7.07197 103.716 7.55197C103.94 8.02097 104.084 8.597 104.148 9.28C104.148 9.856 104.02 10.331 103.764 10.704C103.519 11.067 103.22 11.36 102.868 11.584C102.516 11.808 102.148 11.968 101.764 12.064C101.391 12.16 101.081 12.224 100.836 12.256C100.591 12.309 100.308 12.373 99.988 12.448C99.668 12.512 99.396 12.544 99.172 12.544C98.927 12.544 98.783 12.517 98.74 12.464C98.697 12.411 98.676 12.341 98.676 12.256C99.156 12.235 99.636 12.197 100.116 12.144C100.596 12.08 101.076 11.973 101.556 11.824C101.076 11.941 100.596 12.032 100.116 12.096C99.636 12.149 99.156 12.187 98.676 12.208C98.676 12.144 98.671 12.08 98.66 12.016C98.649 11.941 98.617 11.904 98.564 11.904C98.457 11.904 98.372 12.075 98.308 12.416C98.255 12.757 98.212 13.163 98.18 13.632C98.159 14.112 98.143 14.603 98.132 15.104C98.132 15.605 98.132 16.021 98.132 16.352C98.132 16.501 98.137 16.656 98.148 16.816C98.169 16.987 98.18 17.131 98.18 17.248C98.18 17.355 98.164 17.445 98.132 17.52C98.1 17.595 98.009 17.632 97.86 17.632V15.616C97.839 15.957 97.823 16.293 97.812 16.624C97.812 16.955 97.812 17.291 97.812 17.632H97.524V17.76C97.524 17.856 97.54 17.925 97.572 17.968C97.455 18.171 97.321 18.272 97.172 18.272C97.055 18.272 96.964 18.24 96.9 18.176C96.847 18.112 96.767 18.027 96.66 17.92L96.708 17.776ZM98.26 11.104H98.484C98.857 11.104 99.284 11.083 99.764 11.04C100.255 10.997 100.713 10.917 101.14 10.8C101.567 10.683 101.924 10.517 102.212 10.304C102.511 10.091 102.66 9.81298 102.66 9.47198V9.34399C102.66 9.23699 102.649 9.11997 102.628 8.99197C102.617 8.86397 102.575 8.74099 102.5 8.62399C102.511 8.67699 102.537 8.784 102.58 8.944C102.623 9.104 102.644 9.23699 102.644 9.34399C102.644 9.67499 102.527 9.94697 102.292 10.16C102.068 10.363 101.78 10.528 101.428 10.656C101.087 10.773 100.708 10.859 100.292 10.912C99.887 10.955 99.497 10.976 99.124 10.976H98.804C98.697 10.976 98.591 10.971 98.484 10.96C98.633 10.843 98.825 10.763 99.06 10.72C99.305 10.667 99.561 10.624 99.828 10.592C100.095 10.56 100.356 10.528 100.612 10.496C100.868 10.464 101.087 10.411 101.268 10.336L101.364 10.528C101.737 10.347 101.999 10.171 102.148 10C102.308 9.819 102.388 9.57298 102.388 9.26398C102.388 8.77298 102.249 8.34099 101.972 7.96799C101.705 7.59499 101.343 7.34397 100.884 7.21597L100.836 7.31198C101.231 7.46098 101.572 7.70697 101.86 8.04797C102.148 8.38897 102.292 8.8 102.292 9.28C102.292 9.536 102.233 9.739 102.116 9.888C102.009 10.016 101.839 10.133 101.604 10.24C101.796 10.155 101.94 10.048 102.036 9.91998C102.153 9.77098 102.233 9.60498 102.276 9.42398C102.276 8.97598 102.169 8.59699 101.956 8.28799C101.743 7.97899 101.444 7.73297 101.06 7.55197C100.676 7.35997 100.212 7.22698 99.668 7.15198C99.135 7.06698 98.543 7.02399 97.892 7.02399C97.977 7.48299 98.025 7.98398 98.036 8.52798C98.057 9.06098 98.095 9.58398 98.148 10.096L98.26 11.104ZM96.644 8.65598C96.665 8.63498 96.687 8.54397 96.708 8.38397C96.729 8.22397 96.745 8.05298 96.756 7.87198C96.777 7.67998 96.793 7.50399 96.804 7.34399C96.825 7.17299 96.847 7.07198 96.868 7.03998L96.66 7.02399L96.644 8.65598ZM109.992 11.776C109.928 11.776 109.864 11.808 109.8 11.872C109.576 11.957 109.341 12.032 109.096 12.096C108.861 12.149 108.616 12.176 108.36 12.176C107.634 12.176 107.09 11.968 106.728 11.552C106.365 11.125 106.184 10.512 106.184 9.71198C106.184 9.32798 106.2 8.944 106.232 8.56C106.264 8.187 106.285 7.83999 106.296 7.51999C106.264 7.85099 106.226 8.18099 106.184 8.51199C106.13 8.86399 106.104 9.232 106.104 9.616C106.104 9.808 106.12 10.053 106.152 10.352C106.194 10.651 106.29 10.944 106.44 11.232C106.589 11.509 106.818 11.755 107.128 11.968C107.437 12.171 107.864 12.272 108.408 12.272C108.664 12.272 108.909 12.245 109.144 12.192C109.389 12.128 109.624 12.053 109.848 11.968C109.698 12.149 109.496 12.293 109.24 12.4C108.994 12.507 108.701 12.56 108.36 12.56C107.922 12.56 107.496 12.469 107.08 12.288C106.674 12.107 106.365 11.803 106.152 11.376L106.248 11.2C106.056 10.859 105.949 10.555 105.928 10.288C105.906 10.011 105.885 9.73899 105.864 9.47198L106.136 6.672C106.189 6.192 106.226 5.71199 106.248 5.23199L106.2 5.19998C106.114 5.70098 106.045 6.18098 105.992 6.63998C105.938 7.08798 105.896 7.53099 105.864 7.96799V7.55197C105.928 7.06097 105.986 6.581 106.04 6.112C106.093 5.632 106.162 5.14698 106.248 4.65598C106.333 4.16498 106.44 3.653 106.568 3.12C106.706 2.587 106.888 2.01599 107.112 1.40799C107.41 1.00299 107.586 0.602977 107.64 0.207977C107.672 0.207977 107.704 0.212999 107.736 0.223999C107.768 0.234999 107.832 0.23999 107.928 0.23999C107.992 0.23999 108.045 0.255994 108.088 0.287994C108.141 0.308994 108.168 0.362998 108.168 0.447998C108.168 0.543998 108.136 0.687974 108.072 0.879974C108.093 0.879974 108.125 0.890987 108.168 0.911987C108.21 0.922987 108.242 0.927979 108.264 0.927979C108.413 0.671978 108.546 0.452973 108.664 0.271973C108.792 0.0909727 108.914 0 109.032 0C109.106 0 109.17 0.0479819 109.224 0.143982C109.288 0.228982 109.32 0.372989 109.32 0.575989C109.298 0.959989 109.234 1.323 109.128 1.664C109.032 2.005 108.925 2.33598 108.808 2.65598C108.69 2.97598 108.573 3.30099 108.456 3.63199C108.349 3.96299 108.269 4.309 108.216 4.672C108.152 5.088 108.088 5.515 108.024 5.952C107.96 6.379 107.901 6.80499 107.848 7.23199C107.794 7.65899 107.741 8.06899 107.688 8.46399C107.645 8.85899 107.613 9.22699 107.592 9.56799C107.592 9.87699 107.64 10.197 107.736 10.528C107.789 10.613 107.837 10.677 107.88 10.72C107.922 10.752 107.997 10.768 108.104 10.768C108.232 10.768 108.37 10.752 108.52 10.72C108.68 10.688 108.818 10.672 108.936 10.672C109.01 10.672 109.064 10.683 109.096 10.704C109.128 10.725 109.154 10.763 109.175 10.816C109.026 10.901 108.866 10.965 108.696 11.008C108.525 11.051 108.365 11.072 108.216 11.072H107.992C107.949 11.072 107.912 11.072 107.88 11.072C107.997 11.093 108.146 11.104 108.328 11.104C108.605 11.104 108.888 11.04 109.175 10.912C109.175 11.008 109.208 11.088 109.272 11.152C109.304 11.141 109.378 11.104 109.496 11.04C109.613 10.976 109.714 10.944 109.8 10.944C110.056 10.944 110.184 11.051 110.184 11.264C110.184 11.296 110.173 11.344 110.152 11.408C110.13 11.472 110.077 11.595 109.992 11.776ZM105.752 9.63199C105.752 9.55699 105.752 9.46099 105.752 9.34399C105.762 9.22699 105.773 9.10897 105.784 8.99197L105.816 8.62399C105.826 8.49599 105.837 8.38399 105.848 8.28799C105.837 8.44799 105.826 8.651 105.816 8.896C105.816 9.131 105.816 9.30698 105.816 9.42398V10.064C105.816 10.149 105.816 10.24 105.816 10.336C105.826 10.432 105.837 10.523 105.848 10.608C105.805 10.437 105.778 10.272 105.768 10.112C105.757 9.941 105.752 9.78099 105.752 9.63199ZM107.32 9.56799C107.32 9.32299 107.336 9.08299 107.368 8.84799C107.4 8.61299 107.426 8.37299 107.448 8.12799C107.394 8.37299 107.352 8.61299 107.32 8.84799C107.298 9.08299 107.277 9.32299 107.256 9.56799V9.79199C107.256 9.86699 107.261 9.94698 107.272 10.032V9.91998C107.272 9.86698 107.277 9.80799 107.288 9.74399C107.298 9.67999 107.309 9.62099 107.32 9.56799ZM105.848 8.27197C105.848 8.25097 105.848 8.235 105.848 8.224C105.858 8.213 105.864 8.20299 105.864 8.19199C105.864 8.23499 105.858 8.26097 105.848 8.27197ZM114.69 3.504C114.701 3.557 114.76 3.58398 114.866 3.58398H114.898C114.962 3.58398 115.005 3.58898 115.026 3.59998C115.581 3.77098 116.13 4.02099 116.674 4.35199C117.229 4.67199 117.725 5.06099 118.162 5.51999C118.61 5.96799 118.968 6.48 119.234 7.056C119.512 7.632 119.65 8.25099 119.65 8.91199C119.65 9.48799 119.538 10.043 119.314 10.576C119.09 11.109 118.781 11.573 118.386 11.968C118.792 11.616 119.112 11.179 119.346 10.656C119.592 10.123 119.714 9.552 119.714 8.944C119.714 8.261 119.57 7.62698 119.282 7.03998C118.994 6.44298 118.626 5.90897 118.178 5.43997C117.73 4.97097 117.229 4.57099 116.674 4.23999C116.13 3.89899 115.597 3.63699 115.074 3.45599C115.48 3.45599 115.89 3.547 116.306 3.728C116.733 3.909 117.138 4.149 117.522 4.448C117.906 4.736 118.258 5.07199 118.578 5.45599C118.909 5.82899 119.186 6.21297 119.41 6.60797L119.298 6.76797C119.512 7.08798 119.672 7.43498 119.778 7.80798C119.896 8.18098 119.954 8.56499 119.954 8.95999C119.954 9.71699 119.789 10.384 119.458 10.96C119.138 11.525 118.728 12 118.226 12.384C117.736 12.757 117.192 13.04 116.594 13.232C116.008 13.424 115.453 13.52 114.93 13.52C114.632 13.52 114.328 13.488 114.018 13.424C113.72 13.36 113.416 13.253 113.106 13.104V13.2C113.405 13.371 113.709 13.488 114.018 13.552C114.338 13.616 114.653 13.648 114.962 13.648C115.73 13.648 116.482 13.477 117.218 13.136C117.965 12.805 118.594 12.336 119.106 11.728C118.616 12.357 118.002 12.848 117.266 13.2C116.541 13.552 115.784 13.728 114.994 13.728C114.184 13.728 113.528 13.568 113.026 13.248C112.525 12.939 112.13 12.555 111.842 12.096C111.565 11.637 111.378 11.152 111.282 10.64C111.186 10.128 111.138 9.66898 111.138 9.26398C111.138 8.71998 111.208 8.187 111.346 7.664C111.496 7.141 111.72 6.661 112.018 6.224C112.317 5.787 112.701 5.41297 113.17 5.10397C113.64 4.78397 114.205 4.55998 114.866 4.43198L114.402 4.31998C114.178 4.26698 114.018 4.20299 113.922 4.12799C113.826 4.05299 113.778 3.98897 113.778 3.93597C113.778 3.85097 113.869 3.76 114.05 3.664C114.242 3.557 114.456 3.504 114.69 3.504ZM113.97 5.51999C114.258 5.41299 114.536 5.35999 114.802 5.35999C115.069 5.35999 115.272 5.40298 115.41 5.48798C115.56 5.56298 115.634 5.643 115.634 5.728C115.634 5.781 115.57 5.83999 115.442 5.90399C115.325 5.96799 115.17 6.05899 114.978 6.17599C114.797 6.28299 114.594 6.42098 114.37 6.59198C114.157 6.76298 113.954 6.98099 113.762 7.24799C113.581 7.50399 113.426 7.81899 113.298 8.19199C113.181 8.56499 113.122 9.003 113.122 9.504C113.122 10.24 113.288 10.795 113.618 11.168C113.949 11.541 114.408 11.728 114.994 11.728C115.368 11.728 115.746 11.664 116.13 11.536C116.525 11.408 116.877 11.227 117.186 10.992C117.506 10.757 117.762 10.469 117.954 10.128C118.157 9.78699 118.258 9.40298 118.258 8.97598C118.258 8.65598 118.2 8.33599 118.082 8.01599C117.976 7.69599 117.821 7.39197 117.618 7.10397C117.426 6.80497 117.192 6.52797 116.914 6.27197C116.648 6.01597 116.354 5.797 116.034 5.616C115.725 5.445 115.469 5.31699 115.266 5.23199C115.074 5.13599 114.936 5.04499 114.85 4.95999C114.765 5.00299 114.642 5.05599 114.482 5.12C114.333 5.173 114.13 5.25898 113.874 5.37598L113.97 5.51999ZM115.042 4.76797C115.533 4.92797 116.002 5.16798 116.45 5.48798C116.834 5.77598 117.186 6.09098 117.506 6.43198C117.197 6.06898 116.861 5.74399 116.498 5.45599C116.082 5.11499 115.618 4.84798 115.106 4.65598L115.042 4.76797ZM118.146 10.224C117.986 10.565 117.762 10.869 117.474 11.136C117.666 11.008 117.826 10.853 117.954 10.672C118.093 10.491 118.205 10.309 118.29 10.128C118.376 9.94699 118.44 9.78099 118.482 9.63199C118.514 9.49299 118.541 9.38099 118.562 9.29599C118.445 9.57299 118.306 9.883 118.146 10.224ZM119.218 11.6C119.208 11.621 119.192 11.643 119.17 11.664C119.16 11.675 119.149 11.68 119.138 11.68C119.128 11.68 119.154 11.627 119.218 11.52C119.282 11.403 119.357 11.269 119.442 11.12C119.538 10.96 119.629 10.795 119.714 10.624C119.789 10.496 119.842 10.384 119.874 10.288C119.725 10.747 119.506 11.184 119.218 11.6ZM120.114 9.008C120.114 9.179 120.104 9.34899 120.082 9.51999C120.061 9.67999 120.024 9.82899 119.97 9.96799C120.045 9.70099 120.082 9.40299 120.082 9.07199C120.082 8.82699 120.061 8.58699 120.018 8.35199C119.986 8.14899 119.944 7.95198 119.89 7.75998C119.944 7.95198 119.992 8.144 120.034 8.336C120.088 8.549 120.114 8.773 120.114 9.008ZM115.042 4.51199L114.898 4.448C114.888 4.469 114.872 4.49099 114.85 4.51199C114.829 4.53299 114.818 4.55499 114.818 4.57599C114.818 4.59699 114.829 4.629 114.85 4.672C114.882 4.704 114.909 4.73098 114.93 4.75198L115.042 4.51199ZM117.602 6.54398C117.57 6.50098 117.538 6.46398 117.506 6.43198C117.538 6.47498 117.57 6.51198 117.602 6.54398ZM124.316 13.312C124.21 13.333 124.092 13.344 123.964 13.344H123.5C123.223 13.344 123.026 13.376 122.908 13.44C122.802 13.504 122.738 13.536 122.716 13.536L122.652 13.248V12.96L122.572 11.456C122.551 11.168 122.492 10.859 122.396 10.528C122.3 10.197 122.226 9.86099 122.172 9.51999C122.14 9.29599 122.114 9.08297 122.092 8.87997L122.028 8.25598C122.007 8.04298 121.98 7.82398 121.948 7.59998C121.927 7.37598 121.89 7.13597 121.836 6.87997C121.836 6.81597 121.836 6.75199 121.836 6.68799C121.847 6.62399 121.852 6.55997 121.852 6.49597C121.852 6.16497 121.826 5.83999 121.772 5.51999C121.719 5.19999 121.644 4.88499 121.548 4.57599C121.623 4.54399 121.692 4.51697 121.756 4.49597C121.82 4.46397 121.879 4.448 121.932 4.448C121.986 4.448 122.044 4.51198 122.108 4.63998C122.172 4.75698 122.242 5.008 122.316 5.392C122.338 5.392 122.37 5.38698 122.412 5.37598C122.455 5.35498 122.487 5.34399 122.508 5.34399C122.498 5.16299 122.471 4.97097 122.428 4.76797C122.386 4.55498 122.343 4.35197 122.3 4.15997C122.258 3.96797 122.215 3.79698 122.172 3.64798C122.14 3.48798 122.124 3.35998 122.124 3.26398C122.124 3.24298 122.124 3.21599 122.124 3.18399C122.135 3.15199 122.162 3.13599 122.204 3.13599C122.258 3.13599 122.327 3.19498 122.412 3.31198C122.498 3.42898 122.588 3.57898 122.684 3.75998C122.78 3.94098 122.871 4.13899 122.956 4.35199C123.052 4.55499 123.138 4.74698 123.212 4.92798C123.5 4.38398 123.826 3.97298 124.188 3.69598C124.562 3.40798 125.047 3.26398 125.644 3.26398C126.082 3.26398 126.439 3.31698 126.716 3.42398C126.994 3.51998 127.207 3.63198 127.356 3.75998C127.516 3.87698 127.623 3.98898 127.676 4.09598L127.772 4.25598C127.772 4.31998 127.74 4.36297 127.676 4.38397C127.399 4.11697 127.084 3.915 126.732 3.776C126.38 3.637 126.018 3.56799 125.644 3.56799C125.282 3.56799 125.01 3.61598 124.828 3.71198C124.658 3.79698 124.476 3.90398 124.284 4.03198C124.487 3.90398 124.674 3.803 124.844 3.728C125.026 3.653 125.287 3.616 125.628 3.616C126.002 3.616 126.359 3.691 126.7 3.84C127.042 3.979 127.335 4.15997 127.58 4.38397C127.527 4.40497 127.479 4.43199 127.436 4.46399C127.404 4.48499 127.388 4.52299 127.388 4.57599C127.442 4.57599 127.5 4.61299 127.564 4.68799C127.628 4.75199 127.687 4.83198 127.74 4.92798C127.794 5.02398 127.836 5.12499 127.868 5.23199C127.911 5.32799 127.932 5.40798 127.932 5.47198C127.932 5.65298 127.863 5.74399 127.724 5.74399C127.618 5.74399 127.49 5.70699 127.34 5.63199C127.308 5.62099 127.239 5.56299 127.132 5.45599C127.036 5.34899 126.914 5.24299 126.764 5.13599C126.615 5.01899 126.444 4.91198 126.252 4.81598C126.06 4.71998 125.847 4.672 125.612 4.672C125.42 4.672 125.25 4.71499 125.1 4.79999C124.962 4.87499 124.834 4.981 124.716 5.12C124.599 5.24799 124.492 5.39699 124.396 5.56799L124.188 5.952C124.348 5.664 124.524 5.403 124.716 5.168C124.93 4.891 125.196 4.75198 125.516 4.75198C125.794 4.75198 126.05 4.816 126.284 4.944C126.519 5.061 126.711 5.211 126.86 5.392C126.679 5.317 126.466 5.243 126.22 5.168C125.975 5.093 125.74 5.056 125.516 5.056C125.399 5.056 125.298 5.08299 125.212 5.13599C125.127 5.18899 125.052 5.25899 124.988 5.34399C124.935 5.41899 124.882 5.50398 124.828 5.59998C124.786 5.69598 124.738 5.78698 124.684 5.87198L124.476 5.90399C124.295 6.21299 124.146 6.57597 124.028 6.99197C123.922 7.39697 123.868 7.82397 123.868 8.27197C123.868 8.53897 123.879 8.77897 123.9 8.99197C123.932 9.20497 123.975 9.42398 124.028 9.64798L124.22 10.144L124.188 9.67999C124.167 9.31699 124.146 8.997 124.124 8.72C124.103 8.432 124.092 8.117 124.092 7.776C124.114 7.467 124.156 7.173 124.22 6.896C124.274 6.661 124.354 6.44299 124.46 6.23999C124.332 6.49599 124.247 6.789 124.204 7.12C124.151 7.483 124.124 7.86697 124.124 8.27197C124.124 8.59197 124.14 8.89599 124.172 9.18399C124.204 9.47199 124.242 9.75997 124.284 10.048C124.338 10.336 124.391 10.635 124.444 10.944C124.498 11.243 124.54 11.573 124.572 11.936L124.62 12.24L124.716 13.152L124.316 13.312ZM134.451 13.424C134.045 13.563 133.736 13.637 133.523 13.648C133.309 13.669 133.123 13.685 132.963 13.696C132.365 13.696 131.827 13.584 131.347 13.36C130.867 13.136 130.456 12.832 130.115 12.448C129.773 12.064 129.507 11.616 129.315 11.104C129.133 10.581 129.043 10.027 129.043 9.43997C129.043 9.09897 129.075 8.74697 129.139 8.38397C129.203 8.01097 129.299 7.64799 129.427 7.29599C129.555 6.93299 129.72 6.59699 129.923 6.28799C130.115 5.97899 130.344 5.70099 130.611 5.45599C130.333 5.67999 130.099 5.94698 129.907 6.25598C129.704 6.56498 129.533 6.90098 129.395 7.26398C129.256 7.61598 129.155 7.98398 129.091 8.36798C129.027 8.74098 128.995 9.10399 128.995 9.45599C128.995 9.90399 129.064 10.384 129.203 10.896C129.352 11.397 129.587 11.867 129.907 12.304C130.227 12.731 130.637 13.088 131.139 13.376C131.651 13.664 132.269 13.808 132.995 13.808C133.336 13.808 133.693 13.76 134.067 13.664C133.661 13.931 133.208 14.064 132.707 14.064C132.301 14.064 131.917 14 131.555 13.872C131.203 13.755 130.872 13.584 130.563 13.36C130.264 13.147 129.992 12.891 129.747 12.592C129.501 12.293 129.293 11.973 129.123 11.632L129.267 11.504C129.085 11.141 128.952 10.779 128.867 10.416C128.792 10.053 128.755 9.68498 128.755 9.31198C128.755 8.76798 128.829 8.24499 128.979 7.74399C129.139 7.24299 129.347 6.76798 129.603 6.31998L129.987 5.79199C130.051 5.67499 130.141 5.55697 130.259 5.43997C130.387 5.32297 130.525 5.21097 130.675 5.10397C130.824 4.98697 130.979 4.88499 131.139 4.79999C131.309 4.70399 131.469 4.61898 131.619 4.54398C132.003 4.35198 132.387 4.18098 132.771 4.03198C133.155 3.87198 133.603 3.75499 134.115 3.67999L134.051 3.63199C133.069 3.72799 132.237 3.96799 131.555 4.35199C130.872 4.72499 130.317 5.184 129.891 5.728C129.464 6.272 129.155 6.86899 128.963 7.51999C128.771 8.15999 128.675 8.78899 128.675 9.40799C128.675 9.73899 128.701 10.075 128.755 10.416C128.819 10.747 128.909 11.077 129.027 11.408C128.76 10.768 128.627 10.091 128.627 9.37598C128.627 8.67198 128.744 7.973 128.979 7.28C129.213 6.587 129.581 5.94699 130.083 5.35999C130.723 4.77299 131.421 4.32499 132.179 4.01599C132.936 3.69599 133.667 3.53598 134.371 3.53598C134.595 3.53598 134.824 3.57298 135.059 3.64798C135.293 3.72298 135.507 3.84 135.699 4C135.891 4.149 136.045 4.34698 136.163 4.59198C136.291 4.83698 136.355 5.13598 136.355 5.48798C136.355 5.77598 136.285 6.12798 136.147 6.54398C136.008 6.95998 135.8 7.36498 135.523 7.75998C135.256 8.14398 134.92 8.47498 134.515 8.75198C134.109 9.01898 133.64 9.15198 133.107 9.15198H132.579C132.184 9.06698 131.821 8.97098 131.491 8.86398C131.171 8.74698 130.867 8.65598 130.579 8.59198C130.536 8.76298 130.509 8.92798 130.499 9.08798C130.499 9.23698 130.499 9.38698 130.499 9.53598C130.499 9.84498 130.531 10.149 130.595 10.448C130.669 10.736 130.781 11.003 130.931 11.248C131.08 11.493 131.267 11.701 131.491 11.872C131.725 12.032 132.008 12.133 132.339 12.176C132.541 12.219 132.717 12.245 132.867 12.256C133.016 12.256 133.139 12.261 133.235 12.272C133.341 12.272 133.416 12.288 133.459 12.32C133.512 12.341 133.539 12.389 133.539 12.464C133.432 12.496 133.32 12.517 133.203 12.528C133.096 12.539 132.984 12.544 132.867 12.544C132.493 12.544 132.157 12.485 131.859 12.368C131.56 12.24 131.304 12.096 131.091 11.936C131.336 12.181 131.629 12.357 131.971 12.464C132.312 12.56 132.648 12.608 132.979 12.608C133.16 12.608 133.347 12.592 133.539 12.56C133.517 12.624 133.507 12.661 133.507 12.672C133.507 12.736 133.533 12.779 133.587 12.8C133.629 12.789 133.704 12.763 133.811 12.72C133.917 12.667 134.024 12.619 134.131 12.576C134.248 12.523 134.36 12.48 134.467 12.448C134.573 12.405 134.648 12.384 134.691 12.384C134.744 12.384 134.792 12.395 134.835 12.416C134.877 12.427 134.899 12.485 134.899 12.592C134.899 12.699 134.861 12.827 134.787 12.976C134.712 13.125 134.6 13.275 134.451 13.424ZM132.243 7.08798L132.595 7.15198C132.712 7.17298 132.819 7.18399 132.915 7.18399C133.021 7.18399 133.144 7.15198 133.283 7.08798C133.432 7.01298 133.576 6.912 133.715 6.784C133.864 6.656 133.992 6.49599 134.099 6.30399C134.216 6.11199 134.301 5.89298 134.355 5.64798L134.387 5.55197C134.237 5.55197 134.013 5.589 133.715 5.664C133.416 5.739 133.107 5.83999 132.787 5.96799C132.467 6.08499 132.168 6.22899 131.891 6.39999C131.613 6.55999 131.421 6.73598 131.315 6.92798C131.475 6.95998 131.629 6.99199 131.779 7.02399C131.939 7.04499 132.093 7.06698 132.243 7.08798ZM131.507 8.27197C131.528 8.25097 131.539 8.219 131.539 8.17599C131.549 8.13299 131.555 8.10099 131.555 8.07999L130.803 7.80798L130.723 8.03198L131.507 8.27197ZM131.059 11.904C130.984 11.819 130.909 11.733 130.835 11.648C130.771 11.573 130.717 11.499 130.675 11.424C130.771 11.605 130.899 11.765 131.059 11.904Z" fill="#FCF4DE"/>
<path fill-rule="evenodd" clip-rule="evenodd" d="M95.6389 66.1357C95.6389 81.3236 83.3268 93.6357 68.1389 93.6357C52.9511 93.6357 40.6389 81.3236 40.6389 66.1357C40.6389 50.9479 52.9511 38.6357 68.1389 38.6357C83.3268 38.6357 95.6389 50.9479 95.6389 66.1357ZM68.616 83.2908C68.846 83.7508 69.593 83.7508 69.823 83.2908C71.719 80.0148 72.984 76.4518 73.443 72.6588C73.501 71.9688 72.639 71.7388 72.236 72.1408C71.317 73.0028 70.34 73.8658 69.363 74.7278C69.3316 72.4831 69.2487 70.2427 69.1659 68.0042C68.9455 62.0467 68.7256 56.1031 69.478 50.1288C69.535 49.5538 68.558 49.4388 68.443 50.0138C66.9684 56.1818 67.3011 62.5935 67.6296 68.924C67.7235 70.7334 67.8171 72.5362 67.868 74.3248C67.006 73.1758 66.029 72.1988 64.88 71.3938C64.363 71.0488 63.73 71.6238 63.845 72.1988C64.88 76.1068 66.662 79.7278 68.616 83.2908ZM67.868 76.0488C67.868 76.8538 68.846 76.9688 69.19 76.4518C69.363 76.5088 69.593 76.4518 69.707 76.2218C70.1391 75.7903 70.5974 75.3854 71.0461 74.989C71.2546 74.8047 71.4611 74.6222 71.662 74.4398C71.202 76.9118 70.34 79.2108 69.19 81.4518C67.868 78.9808 66.719 76.5088 65.799 73.8648C66.3005 74.3274 66.7499 74.7901 67.1993 75.2527C67.4201 75.4801 67.641 75.7074 67.868 75.9348V76.0488Z" fill="#FCF4DE"/>
</svg>
